<svg xmlns="http://www.w3.org/2000/svg" width="160" height="160"><path fill="#0F1017" d="M80 0a5.34 5.34 0 0 0-5.34 5.34c0 1.925 1.035 3.702 2.712 4.648l2.63 13.12L82.612 10a5.33 5.33 0 0 0 2.728-4.66A5.34 5.34 0 0 0 80 0M45.122 8.746c-.937-.033-1.866.182-2.694.622a5.34 5.34 0 0 0-2.208 7.222c.902 1.7 2.651 2.783 4.576 2.832l8.482 10.35-3.85-12.8a5.33 5.33 0 0 0 .224-5.394c-.894-1.685-2.621-2.764-4.528-2.83zm69.756 0c-1.907.066-3.634 1.145-4.528 2.83a5.33 5.33 0 0 0 .224 5.394l-3.85 12.798 8.482-10.35c1.925-.049 3.674-1.132 4.576-2.832a5.34 5.34 0 0 0-2.208-7.22c-.828-.44-1.757-.655-2.694-.622zM80 28.47a51.56 51.56 0 0 0-45.148 26.66L0 60.462l38.12.002c7.596-16.265 23.927-26.661 41.881-26.661s34.285 10.395 41.881 26.661H160l-34.85-5.334A51.56 51.56 0 0 0 80 28.47m-62.248 4.458c-1.658.1-3.174.967-4.102 2.344a5.34 5.34 0 0 0 1.442 7.412c1.595 1.078 3.648 1.212 5.37.352l12.348 5.158L23.4 38.7a5.33 5.33 0 0 0-2.336-4.868c-.974-.657-2.139-.974-3.312-.902zm124.494 0c-1.173-.072-2.338.245-3.312.902a5.33 5.33 0 0 0-2.336 4.868l-9.41 9.494 12.348-5.158c1.722.86 3.775.726 5.37-.352a5.34 5.34 0 0 0 1.442-7.412c-.928-1.377-2.444-2.244-4.102-2.344zM80 44.466c-17.919 0-33.037 13.332-35.276 31.106H24.068a12.44 12.44 0 0 0-11.624-7.998C5.571 67.572-.001 73.143 0 80.016S5.571 92.46 12.444 92.458a12.44 12.44 0 0 0 11.624-8h20.656c2.239 17.774 17.357 31.105 35.276 31.106s33.037-13.332 35.276-31.106h20.656a12.44 12.44 0 0 0 11.624 7.998c6.873.002 12.445-5.569 12.444-12.442s-5.571-12.444-12.444-12.442a12.44 12.44 0 0 0-11.624 7.998h-20.656C113.036 57.797 97.918 44.467 80 44.466m0 8.888c14.727 0 26.666 11.937 26.666 26.662s-11.94 26.66-26.666 26.66-26.665-11.936-26.666-26.66S65.273 53.354 80 53.354m0 10.664a16 16 0 0 0-16 15.996A16 16 0 0 0 80 96.01c8.836 0 15.999-7.16 16-15.994s-7.163-15.998-16-15.998m67.556 7.702a8.3 8.3 0 0 1 8.296 8.296 8.3 8.3 0 0 1-8.296 8.296 8.3 8.3 0 0 1-8.296-8.296 8.3 8.3 0 0 1 8.296-8.296m0 4.146a4.15 4.15 0 0 0-4.148 4.148 4.15 4.15 0 0 0 4.148 4.146 4.15 4.15 0 0 0 4.148-4.146 4.15 4.15 0 0 0-4.148-4.146zM0 99.566l34.85 5.334a51.56 51.56 0 0 0 90.3-.002l34.842-5.33H121.88c-7.596 16.265-23.927 26.661-41.881 26.661s-34.284-10.395-41.881-26.661zm18.406 16.846c-1.173-.072-2.338.245-3.312.902a5.34 5.34 0 1 0 5.972 8.854 5.34 5.34 0 0 0 1.442-7.412c-.928-1.377-2.444-2.244-4.102-2.344m123.19 0c-1.658.1-3.174.967-4.102 2.344a5.34 5.34 0 1 0 8.856 5.97 5.34 5.34 0 0 0-1.442-7.412c-.974-.657-2.139-.974-3.312-.902m-96.848 24.172c-1.908.065-3.635 1.144-4.53 2.83a5.34 5.34 0 1 0 9.432 5.014 5.34 5.34 0 0 0-2.208-7.222c-.828-.44-1.757-.655-2.694-.622m70.502 0c-.937-.033-1.866.182-2.694.622a5.34 5.34 0 1 0 5.016 9.43 5.34 5.34 0 0 0 2.208-7.222c-.894-1.685-2.621-2.764-4.528-2.83zM80 149.322a5.34 5.34 0 0 0-5.34 5.338 5.34 5.34 0 1 0 10.68 0 5.34 5.34 0 0 0-5.34-5.338"/></svg>
