<svg xmlns="http://www.w3.org/2000/svg" width="680" height="160"><path fill="#e3e2db" d="M441.223 49.11c-4.665 0-8.959.769-12.885 2.305-3.925 1.479-7.368 3.611-10.326 6.398-2.901 2.788-5.176 6.06-6.826 9.814-1.593 3.755-2.389 7.879-2.389 12.373s.796 8.618 2.389 12.373c1.65 3.755 3.925 7.027 6.826 9.814s6.315 4.948 10.24 6.484c3.982 1.479 8.279 2.219 12.887 2.219 5.234 0 9.927-.91 14.08-2.73 4.21-1.82 7.736-4.465 10.58-7.936l-8.875-8.193c-2.048 2.389-4.323 4.182-6.826 5.377-2.503 1.138-5.233 1.707-8.191 1.707-2.788 0-5.347-.455-7.68-1.365s-4.352-2.219-6.059-3.926-3.045-3.726-4.012-6.059c-.91-2.332-1.365-4.921-1.365-7.766s.455-5.433 1.365-7.766c.967-2.332 2.305-4.352 4.012-6.059s3.726-3.016 6.059-3.926 4.892-1.365 7.68-1.365c2.958 0 5.688.598 8.191 1.793 2.503 1.138 4.778 2.873 6.826 5.205l8.875-8.191c-2.844-3.47-6.37-6.088-10.58-7.852-4.153-1.82-8.819-2.73-13.996-2.73zm60.393 0c-4.665 0-8.988.769-12.971 2.305s-7.452 3.697-10.41 6.484-5.262 6.06-6.912 9.814c-1.593 3.755-2.391 7.85-2.391 12.287s.798 8.532 2.391 12.287c1.65 3.755 3.925 7.027 6.826 9.814 2.958 2.788 6.428 4.948 10.41 6.484 4.039 1.536 8.421 2.305 13.143 2.305 4.665 0 8.959-.769 12.885-2.305 3.982-1.536 7.423-3.668 10.324-6.398 2.958-2.788 5.262-6.06 6.912-9.814 1.65-3.812 2.475-7.936 2.475-12.373 0-4.494-.825-8.589-2.475-12.287-1.65-3.755-3.954-7.027-6.912-9.814-2.901-2.788-6.342-4.948-10.324-6.484-3.925-1.536-8.249-2.305-12.971-2.305zm-302.131 1.023v59.734h13.824V93.397h12.031c5.348 0 9.956-.852 13.824-2.559 3.868-1.764 6.856-4.267 8.961-7.51s3.156-7.082 3.156-11.52c0-4.494-1.051-8.363-3.156-11.605s-5.092-5.717-8.961-7.424c-3.868-1.764-8.477-2.646-13.824-2.646zm62.611 0v59.734h13.824v-24.49h27.135v24.49h13.824V50.133h-13.824v23.553H275.92V50.133zm69.949 0v59.734h13.824V50.133zm28.988 0v59.734h43.777V98.604h-29.953V50.133zm184.676 0v59.734h12.971V74.789l17.492 28.764h6.23l17.586-29.539.078 35.854h12.971l-.172-59.734h-11.35l-21.998 37.09-22.375-37.09zm82.492 0v59.734h13.824V93.397h12.031c5.348 0 9.956-.852 13.824-2.559 3.868-1.764 6.856-4.267 8.961-7.51s3.156-7.082 3.156-11.52c0-4.494-1.051-8.363-3.156-11.605s-5.092-5.717-8.961-7.424c-3.868-1.764-8.477-2.646-13.824-2.646zM501.616 60.885c2.674 0 5.148.455 7.424 1.365s4.239 2.219 5.889 3.926c1.707 1.707 3.014 3.726 3.924 6.059.967 2.332 1.451 4.921 1.451 7.766s-.484 5.433-1.451 7.766c-.91 2.332-2.217 4.352-3.924 6.059a17.6 17.6 0 0 1-5.975 3.926c-2.219.91-4.664 1.365-7.338 1.365s-5.148-.455-7.424-1.365-4.266-2.219-5.973-3.926c-1.65-1.707-2.959-3.726-3.926-6.059-.91-2.389-1.365-4.978-1.365-7.766 0-2.844.455-5.433 1.365-7.766.967-2.332 2.303-4.352 4.01-6.059s3.67-3.016 5.889-3.926c2.276-.91 4.75-1.365 7.424-1.365zm-288.307.512h11.264c4.267 0 7.454.912 9.559 2.732s3.156 4.38 3.156 7.68c0 3.243-1.051 5.773-3.156 7.594s-5.292 2.73-9.559 2.73h-11.264zm428.717 0h11.264c4.267 0 7.454.912 9.559 2.732s3.156 4.38 3.156 7.68c0 3.243-1.051 5.773-3.156 7.594s-5.292 2.73-9.559 2.73h-11.264zM79.999 0a5.34 5.34 0 0 0-5.34 5.34 5.33 5.33 0 0 0 2.712 4.648l2.63 13.12L82.611 10a5.33 5.33 0 0 0 2.728-4.66A5.34 5.34 0 0 0 79.999 0M45.121 8.746c-.937-.033-1.866.182-2.694.622a5.34 5.34 0 0 0-2.208 7.222c.902 1.7 2.651 2.783 4.576 2.832l8.482 10.35-3.85-12.8a5.33 5.33 0 0 0 .224-5.394c-.894-1.685-2.621-2.764-4.528-2.83zm69.756 0c-1.907.066-3.634 1.145-4.528 2.83a5.33 5.33 0 0 0 .224 5.394l-3.85 12.798 8.482-10.35c1.925-.049 3.674-1.132 4.576-2.832a5.34 5.34 0 0 0-2.208-7.22c-.828-.44-1.757-.655-2.694-.622zM79.999 28.47a51.56 51.56 0 0 0-45.148 26.66L-.001 60.462l38.12.002C45.716 44.199 62.046 33.803 80 33.803s34.285 10.396 41.881 26.661h38.118l-34.85-5.334a51.56 51.56 0 0 0-45.15-26.66m-62.248 4.458c-1.658.1-3.174.967-4.102 2.344a5.34 5.34 0 0 0 1.442 7.412c1.595 1.078 3.648 1.212 5.37.352l12.348 5.158-9.41-9.494a5.33 5.33 0 0 0-2.336-4.868c-.974-.657-2.139-.974-3.312-.902zm124.494 0c-1.173-.072-2.338.245-3.312.902a5.33 5.33 0 0 0-2.336 4.868l-9.41 9.494 12.348-5.158c1.722.86 3.775.726 5.37-.352a5.34 5.34 0 0 0 1.442-7.412c-.928-1.377-2.444-2.244-4.102-2.344zM79.999 44.466c-17.919 0-33.037 13.332-35.276 31.106H24.067a12.44 12.44 0 0 0-11.624-7.998C5.57 67.572-.002 73.144-.001 80.016a12.44 12.44 0 0 0 24.068 4.442h20.656c2.239 17.774 17.357 31.105 35.276 31.106s33.037-13.332 35.276-31.106h20.656a12.44 12.44 0 0 0 11.624 7.998c6.873.002 12.445-5.569 12.444-12.442a12.44 12.44 0 0 0-24.068-4.444h-20.656c-2.24-17.773-17.358-31.103-35.276-31.104m0 8.888c14.727 0 26.666 11.937 26.666 26.662a26.67 26.67 0 0 1-26.666 26.66c-14.726 0-26.665-11.936-26.666-26.66s11.939-26.662 26.666-26.662m0 10.664a16 16 0 0 0-16 15.996 16 16 0 1 0 32 .002 16 16 0 0 0-16-15.998m67.556 7.702a8.3 8.3 0 0 1 8.296 8.296c-.003 4.581-3.715 8.294-8.296 8.296a8.3 8.3 0 0 1-8.296-8.296c.003-4.581 3.715-8.294 8.296-8.296m0 4.146a4.15 4.15 0 0 0-4.148 4.148 4.15 4.15 0 0 0 4.148 4.146 4.15 4.15 0 0 0 4.148-4.146 4.15 4.15 0 0 0-4.148-4.146zM-.001 99.566l34.85 5.334a51.56 51.56 0 0 0 90.3-.002l34.842-5.33h-38.112c-7.597 16.265-23.927 26.661-41.881 26.661s-34.284-10.396-41.881-26.661zm18.406 16.846c-1.173-.072-2.338.245-3.312.902a5.34 5.34 0 1 0 5.972 8.854 5.34 5.34 0 0 0 1.442-7.412c-.928-1.377-2.444-2.244-4.102-2.344m123.19 0c-1.658.1-3.174.967-4.102 2.344a5.34 5.34 0 1 0 8.856 5.97 5.34 5.34 0 0 0-1.442-7.412c-.974-.657-2.139-.974-3.312-.902m-96.848 24.172c-1.908.065-3.635 1.144-4.53 2.83a5.34 5.34 0 1 0 9.432 5.014 5.34 5.34 0 0 0-2.208-7.222c-.828-.44-1.757-.655-2.694-.622m70.502 0c-.937-.033-1.866.182-2.694.622a5.34 5.34 0 1 0 5.016 9.43 5.34 5.34 0 0 0 2.208-7.222c-.894-1.685-2.621-2.764-4.528-2.83zm-35.25 8.738a5.34 5.34 0 0 0-5.34 5.338 5.34 5.34 0 1 0 10.68 0c-.003-2.948-2.392-5.338-5.34-5.338"/></svg>
