<svg xmlns="http://www.w3.org/2000/svg" width="160" height="180"><path fill="#0f1017" d="M80.493 159.428c-1.553 0-2.984.256-4.291.768-1.307.493-2.452 1.203-3.438 2.131a10.14 10.14 0 0 0-2.273 3.268c-.53 1.25-.795 2.625-.795 4.121s.265 2.869.795 4.119a10.14 10.14 0 0 0 2.273 3.268c.966.928 2.103 1.649 3.41 2.16 1.326.493 2.757.738 4.291.738 1.743 0 3.305-.304 4.688-.91 1.402-.606 2.576-1.485 3.523-2.641l-2.955-2.729c-.682.796-1.44 1.391-2.273 1.789-.833.379-1.742.568-2.727.568-.928 0-1.782-.15-2.559-.453a5.8 5.8 0 0 1-2.018-1.309 6.14 6.14 0 0 1-1.334-2.016c-.303-.777-.455-1.639-.455-2.586s.152-1.809.455-2.586c.322-.777.766-1.449 1.334-2.018s1.241-1.004 2.018-1.307 1.63-.455 2.559-.455c.985 0 1.893.198 2.727.596.833.379 1.591.958 2.273 1.734l2.955-2.729c-.947-1.156-2.122-2.026-3.523-2.613-1.383-.606-2.936-.91-4.66-.91zm20.109 0c-1.553 0-2.992.256-4.318.768s-2.482 1.232-3.467 2.16a9.93 9.93 0 0 0-2.301 3.268c-.53 1.25-.797 2.614-.797 4.092s.266 2.842.797 4.092c.549 1.25 1.305 2.339 2.271 3.268.985.928 2.141 1.647 3.467 2.158 1.345.511 2.805.768 4.377.768 1.553 0 2.982-.256 4.289-.768 1.326-.511 2.473-1.222 3.439-2.131a9.93 9.93 0 0 0 2.301-3.268c.549-1.269.824-2.642.824-4.119 0-1.496-.275-2.861-.824-4.092a9.93 9.93 0 0 0-2.301-3.268c-.966-.928-2.113-1.649-3.439-2.16-1.307-.511-2.746-.768-4.318-.768zM.001 159.77v19.889h4.602v-5.482H8.61c1.781 0 3.313-.285 4.602-.854 1.288-.587 2.283-1.42 2.984-2.5s1.051-2.358 1.051-3.836c0-1.496-.35-2.784-1.051-3.863s-1.696-1.904-2.984-2.473c-1.288-.587-2.821-.881-4.602-.881zm20.848 0v19.889h4.602v-8.154h9.037v8.154h4.604V159.77h-4.604v7.842H25.45v-7.842zm23.291 0v19.889h4.604V159.77zm9.652 0v19.889h14.576v-3.75h-9.973V159.77zm61.492 0v19.889h4.318v-11.682l5.826 9.58h2.074l5.855-9.836.025 11.938h4.318l-.057-19.889h-3.777l-7.326 12.352-7.449-12.352zm27.469 0v19.889h4.604v-5.482h4.006c1.781 0 3.315-.285 4.604-.854 1.288-.587 2.282-1.42 2.982-2.5s1.053-2.358 1.053-3.836c0-1.496-.352-2.784-1.053-3.863s-1.694-1.904-2.982-2.473c-1.288-.587-2.823-.881-4.604-.881zm-42.15 3.58c.89 0 1.715.152 2.473.455a5.56 5.56 0 0 1 1.959 1.307 5.8 5.8 0 0 1 1.309 2.018c.322.777.482 1.639.482 2.586s-.16 1.809-.482 2.586c-.303.777-.74 1.447-1.309 2.016a5.86 5.86 0 0 1-1.988 1.309c-.739.303-1.553.453-2.443.453s-1.715-.15-2.473-.453a5.86 5.86 0 0 1-1.988-1.309 6.38 6.38 0 0 1-1.307-2.016c-.303-.796-.455-1.658-.455-2.586 0-.947.152-1.809.455-2.586.322-.777.766-1.449 1.334-2.018a5.93 5.93 0 0 1 1.961-1.307c.758-.303 1.582-.455 2.473-.455zm-96 .17h3.752c1.421 0 2.481.304 3.182.91s1.051 1.458 1.051 2.557c0 1.08-.35 1.923-1.051 2.529s-1.761.908-3.182.908H4.603zm142.754 0h3.75c1.421 0 2.481.304 3.182.91s1.053 1.458 1.053 2.557c0 1.08-.352 1.923-1.053 2.529s-1.761.908-3.182.908h-3.75zM80 0c-2.581 0-4.672 2.092-4.672 4.672a4.66 4.66 0 0 0 2.373 4.067l2.301 11.48L82.286 8.75c1.476-.826 2.389-2.386 2.387-4.078C84.673 2.092 82.581 0 80 0M49.482 7.653a4.67 4.67 0 0 0-2.357.544c-2.279 1.211-3.144 4.041-1.932 6.319.789 1.488 2.32 2.435 4.004 2.478l7.422 9.056-3.369-11.2c.916-1.421.991-3.227.196-4.72a4.67 4.67 0 0 0-3.962-2.476zm61.036 0c-1.669.058-3.179 1.002-3.962 2.476-.795 1.493-.72 3.298.196 4.72l-3.369 11.198 7.422-9.056a4.67 4.67 0 0 0 4.004-2.478c1.21-2.278.345-5.106-1.932-6.317a4.67 4.67 0 0 0-2.357-.544zM80 24.911c-16.435 0-31.57 8.937-39.504 23.327L10 52.904l33.355.002c6.647-14.232 20.936-23.328 36.646-23.328S110 38.674 116.647 52.906H150l-30.494-4.667C111.571 33.848 96.436 24.911 80 24.911m-54.467 3.901a4.67 4.67 0 0 0-3.589 2.051c-1.442 2.139-.877 5.043 1.262 6.485a4.67 4.67 0 0 0 4.699.308l10.804 4.513-8.234-8.307c.141-1.685-.641-3.315-2.044-4.259a4.67 4.67 0 0 0-2.898-.789zm108.932 0a4.67 4.67 0 0 0-2.898.789c-1.403.945-2.185 2.574-2.044 4.259l-8.234 8.307 10.804-4.513a4.67 4.67 0 0 0 4.699-.308c2.139-1.443 2.704-4.346 1.262-6.485a4.67 4.67 0 0 0-3.589-2.051zM80 38.908c-15.679 0-28.907 11.665-30.866 27.218H31.06c-1.612-4.216-5.658-7-10.171-6.998A10.89 10.89 0 0 0 10 70.014c-.003 6.014 4.875 10.889 10.889 10.887 4.514.001 8.56-2.784 10.171-7h18.074C51.093 89.453 64.321 101.118 80 101.118s28.907-11.665 30.866-27.218h18.074c1.612 4.216 5.658 7 10.171 6.998A10.89 10.89 0 0 0 150 70.012c.003-6.014-4.875-10.889-10.889-10.887-4.513-.002-8.559 2.782-10.171 6.998h-18.074C108.907 50.572 95.678 38.908 80 38.908m0 7.777c12.886 0 23.333 10.445 23.333 23.329S92.886 93.341 80 93.341 56.668 82.898 56.667 70.014 67.114 46.685 80 46.685m0 9.331a14 14 0 0 0-14 13.996 14 14 0 0 0 28 .002 14 14 0 0 0-14-13.998m59.111 6.739c4.008.002 7.257 3.251 7.259 7.259s-3.251 7.257-7.259 7.259-7.257-3.251-7.259-7.259 3.251-7.257 7.259-7.259m0 3.628a3.63 3.63 0 0 0-3.629 3.629 3.63 3.63 0 0 0 3.629 3.628 3.63 3.63 0 0 0 3.629-3.628 3.63 3.63 0 0 0-3.629-3.628zM10 87.12l30.494 4.667c7.936 14.39 23.071 23.326 39.507 23.326s31.57-8.937 39.506-23.327l30.487-4.664h-33.348c-6.647 14.232-20.936 23.328-36.646 23.328S50 101.354 43.353 87.122zm16.105 14.74a4.67 4.67 0 0 0-2.898.789c-2.139 1.443-2.704 4.346-1.262 6.485s4.347 2.705 6.487 1.262 2.704-4.346 1.262-6.485a4.67 4.67 0 0 0-3.589-2.051m107.791 0a4.67 4.67 0 0 0-3.589 2.051c-1.442 2.139-.877 5.043 1.262 6.485s5.044.878 6.487-1.262.877-5.043-1.262-6.485a4.67 4.67 0 0 0-2.898-.789m-84.742 21.15c-1.669.057-3.181 1.001-3.964 2.476-1.212 2.279-.347 5.108 1.932 6.319s5.109.348 6.321-1.932.347-5.108-1.932-6.319a4.67 4.67 0 0 0-2.357-.544m61.689 0a4.67 4.67 0 0 0-2.357.544c-2.279 1.211-3.144 4.041-1.932 6.319s4.042 3.145 6.321 1.932 3.144-4.041 1.932-6.319c-.782-1.474-2.293-2.419-3.962-2.476zM80 130.657c-2.58 0-4.672 2.091-4.673 4.671S77.42 140 80 140s4.672-2.092 4.672-4.672-2.093-4.671-4.672-4.671"/></svg>
