<svg xmlns="http://www.w3.org/2000/svg" width="1040" height="160"><path  fill="#0f1017" d="M275.871 88.799c-2.944 0-5.375.448-7.295 1.344-1.888.864-3.297 2.032-4.225 3.504-.896 1.44-1.344 3.024-1.344 4.752 0 1.792.367 3.264 1.104 4.416.736 1.12 1.697 2.017 2.881 2.689 1.216.672 2.544 1.232 3.984 1.68l4.367 1.104c1.44.32 2.752.704 3.936 1.152 1.216.416 2.192.976 2.928 1.68.768.704 1.152 1.631 1.152 2.783 0 .992-.287 1.889-.863 2.689-.576.768-1.472 1.376-2.687 1.824s-2.8.672-4.752.672a17.67 17.67 0 0 1-6.193-1.105c-1.984-.736-3.615-1.663-4.894-2.783l-1.777 3.744c1.344 1.248 3.184 2.272 5.519 3.072 2.336.768 4.786 1.152 7.346 1.152 2.944 0 5.375-.433 7.295-1.297 1.952-.896 3.392-2.064 4.32-3.504.928-1.472 1.393-3.056 1.393-4.752 0-1.76-.37-3.2-1.106-4.32s-1.712-2.016-2.928-2.688c-1.184-.672-2.512-1.217-3.984-1.633l-4.318-1.104-3.984-1.152c-1.184-.416-2.16-.976-2.928-1.68-.736-.704-1.106-1.648-1.106-2.832a4.67 4.67 0 0 1 .816-2.687c.576-.8 1.472-1.44 2.687-1.92s2.768-.721 4.656-.721c1.504 0 3.056.224 4.656.672 1.6.416 3.121 1.104 4.561 2.064l1.584-3.84c-1.408-.96-3.072-1.697-4.992-2.209s-3.857-.768-5.809-.768zm148.465 0c-2.56 0-4.928.433-7.104 1.297-2.144.832-4.017 2.032-5.617 3.6-1.6 1.536-2.848 3.344-3.744 5.424s-1.344 4.367-1.344 6.863.448 4.785 1.344 6.865 2.129 3.903 3.697 5.471c1.6 1.536 3.471 2.738 5.615 3.602 2.176.832 4.544 1.248 7.104 1.248 2.624 0 5.025-.45 7.201-1.346 2.208-.896 4.079-2.208 5.615-3.936l-3.119-3.023c-1.28 1.376-2.72 2.4-4.32 3.072-1.6.64-3.313.959-5.137.959-1.888 0-3.647-.319-5.279-.959-1.6-.64-2.992-1.535-4.176-2.687s-2.113-2.512-2.785-4.08c-.64-1.6-.959-3.33-.959-5.186s.319-3.567.959-5.135c.672-1.6 1.601-2.977 2.785-4.129s2.576-2.047 4.176-2.687c1.632-.64 3.391-.961 5.279-.961 1.824 0 3.537.338 5.137 1.01 1.6.64 3.04 1.631 4.32 2.975l3.119-3.023c-1.536-1.728-3.407-3.025-5.615-3.889-2.176-.896-4.56-1.344-7.152-1.344zm95.305 0c-2.624 0-5.025.433-7.201 1.297-2.176.832-4.079 2.032-5.711 3.6-1.6 1.536-2.848 3.344-3.744 5.424s-1.344 4.367-1.344 6.863.448 4.785 1.344 6.865 2.144 3.903 3.744 5.471c1.6 1.536 3.488 2.738 5.664 3.602 2.176.832 4.558 1.248 7.15 1.248 2.368 0 4.657-.353 6.865-1.057 2.24-.736 4.192-1.809 5.855-3.217v-13.104h-4.607v10.934c-.87.572-1.782 1.025-2.736 1.355-1.632.544-3.345.814-5.137.814-1.92 0-3.696-.319-5.328-.959s-3.055-1.535-4.271-2.687a13.05 13.05 0 0 1-2.783-4.129c-.64-1.6-.961-3.313-.961-5.137 0-1.856.321-3.567.961-5.135.672-1.6 1.599-2.977 2.783-4.129 1.216-1.152 2.639-2.047 4.271-2.687 1.664-.64 3.457-.961 5.377-.961 1.888 0 3.632.321 5.232.961 1.632.608 3.136 1.584 4.512 2.928l2.975-2.977c-1.536-1.728-3.407-3.023-5.615-3.887s-4.639-1.297-7.295-1.297zm77.855 0c-2.592 0-4.976.433-7.152 1.297s-4.064 2.078-5.664 3.646a16.47 16.47 0 0 0-3.744 5.426c-.896 2.08-1.344 4.35-1.344 6.814s.448 4.736 1.344 6.816 2.144 3.905 3.744 5.473c1.6 1.536 3.488 2.736 5.664 3.6 2.208.864 4.592 1.297 7.152 1.297s4.911-.416 7.055-1.248c2.176-.864 4.064-2.066 5.664-3.602 1.632-1.568 2.88-3.391 3.744-5.471.896-2.08 1.346-4.369 1.346-6.865s-.45-4.783-1.346-6.863a15.56 15.56 0 0 0-3.744-5.424c-1.6-1.568-3.488-2.768-5.664-3.6-2.144-.864-4.495-1.297-7.055-1.297zm-405.289.385v33.6h4.801v-10.225h8.305l2.131-.088h0l7.227 10.313h5.232l-7.971-11.248.914-.367c2.08-.928 3.681-2.256 4.801-3.984 1.12-1.76 1.68-3.857 1.68-6.289 0-3.68-1.248-6.544-3.744-8.592-2.496-2.08-5.919-3.119-10.271-3.119zm37.896 0v33.6h24.385v-4.176h-19.584V107.76h16.848v-4.08h-16.848v-10.32h18.912v-4.176zm67.969 0v33.6h24.383v-4.176h-19.584V107.76h16.85v-4.08h-16.85v-10.32h18.912v-4.176zm45.287 0l-15.215 33.6h4.943l3.691-8.4h17.865l3.691 8.4h5.039l-15.264-33.6zm28.008 0v33.6h4.801v-10.225h8.305c.738 0 1.447-.03 2.131-.088h0l7.227 10.313h5.232l-7.971-11.248c.314-.113.618-.235.914-.367 2.08-.928 3.681-2.256 4.801-3.984 1.12-1.76 1.68-3.857 1.68-6.289 0-3.68-1.248-6.544-3.744-8.592-2.496-2.08-5.919-3.119-10.271-3.119zm75.121 0v33.6h4.799v-14.977h19.297v14.977h4.801v-33.6h-4.801v14.447h-19.297V89.184zm97.943 0v33.6h4.801v-10.225h8.303c.738 0 1.449-.03 2.133-.088h0l7.227 10.313h5.231l-7.971-11.248c.314-.113.62-.235.916-.367 2.08-.928 3.679-2.256 4.799-3.984 1.12-1.76 1.68-3.857 1.68-6.289 0-3.68-1.246-6.544-3.742-8.592-2.496-2.08-5.921-3.119-10.273-3.119zm80.928 0v19.104c0 4.864 1.265 8.56 3.793 11.088s6 3.793 10.416 3.793c4.448 0 7.92-1.265 10.416-3.793 2.528-2.528 3.791-6.224 3.791-11.088V89.184h-4.656v18.912c0 3.744-.832 6.479-2.496 8.207-1.632 1.728-3.968 2.592-7.008 2.592-3.008 0-5.344-.864-7.008-2.592-1.632-1.728-2.447-4.463-2.447-8.207V89.184zm41.256 0v33.6h4.801v-10.176h8.305c2.944 0 5.455-.465 7.535-1.393 2.08-.96 3.681-2.303 4.801-4.031 1.12-1.76 1.68-3.857 1.68-6.289s-.56-4.527-1.68-6.287-2.721-3.105-4.801-4.033-4.591-1.391-7.535-1.391zm-69.119 3.887c1.856 0 3.567.321 5.135.961 1.6.64 2.977 1.552 4.129 2.736 1.184 1.152 2.096 2.512 2.736 4.08.672 1.568 1.008 3.279 1.008 5.135s-.336 3.569-1.008 5.137a12.41 12.41 0 0 1-2.736 4.129c-1.152 1.152-2.529 2.047-4.129 2.687-1.568.64-3.279.959-5.135.959-1.888 0-3.632-.319-5.232-.959-1.568-.64-2.945-1.536-4.129-2.687a13.05 13.05 0 0 1-2.783-4.129c-.64-1.568-.959-3.281-.959-5.137s.319-3.567.959-5.135a12.49 12.49 0 0 1 2.783-4.08c1.184-1.184 2.561-2.096 4.129-2.736 1.6-.64 3.344-.961 5.232-.961zm-400.488.289h8.16c3.072 0 5.391.655 6.959 1.967 1.6 1.312 2.4 3.168 2.4 5.568s-.8 4.273-2.4 5.617c-1.568 1.312-3.887 1.967-6.959 1.967h-8.16zm179.16 0h8.16c3.072 0 5.391.655 6.959 1.967 1.6 1.312 2.4 3.168 2.4 5.568s-.8 4.273-2.4 5.617c-1.568 1.312-3.887 1.967-6.959 1.967h-8.16zm173.064 0h8.16c3.072 0 5.391.655 6.959 1.967 1.6 1.312 2.4 3.168 2.4 5.568s-.8 4.273-2.4 5.617c-1.568 1.312-3.887 1.967-6.959 1.967h-8.16zm122.184 0h8.16c3.072 0 5.391.655 6.959 1.967 1.6 1.312 2.4 3.168 2.4 5.568s-.8 4.256-2.4 5.568c-1.568 1.312-3.887 1.969-6.959 1.969h-8.16zm-325.703.695l7.244 16.488h-14.49zm.475-57.127c-2.916 0-5.619.479-8.107 1.439s-4.657 2.312-6.506 4.055a18.64 18.64 0 0 0-4.32 6.133c-.996 2.347-1.494 4.906-1.494 7.68s.499 5.333 1.494 7.68c1.031 2.347 2.452 4.393 4.266 6.135 1.849 1.742 4.019 3.093 6.508 4.053 2.524.96 5.262 1.439 8.213 1.439 2.916 0 5.599-.479 8.053-1.439 2.489-.96 4.64-2.293 6.453-4a18.64 18.64 0 0 0 4.32-6.133c1.031-2.382 1.547-4.961 1.547-7.734 0-2.809-.516-5.369-1.547-7.68a18.64 18.64 0 0 0-4.32-6.133c-1.813-1.742-3.964-3.095-6.453-4.055-2.453-.96-5.154-1.439-8.105-1.439zm41.68 0c-3.52 0-6.454.533-8.801 1.6-2.311 1.031-4.053 2.437-5.227 4.215-1.138 1.742-1.707 3.679-1.707 5.813 0 1.991.392 3.626 1.174 4.906.818 1.28 1.867 2.312 3.146 3.094s2.684 1.422 4.213 1.92a60.52 60.52 0 0 0 4.641 1.279 46.66 46.66 0 0 1 4.268 1.068c1.28.356 2.31.835 3.092 1.439.782.569 1.174 1.35 1.174 2.346 0 .782-.248 1.476-.746 2.08s-1.281 1.086-2.348 1.441c-1.031.32-2.399.479-4.105.479-2.24 0-4.464-.355-6.668-1.066-2.169-.747-4.052-1.688-5.652-2.826l-2.934 6.506c1.671 1.28 3.875 2.329 6.613 3.146 2.738.782 5.599 1.174 8.586 1.174 3.556 0 6.49-.533 8.801-1.6 2.347-1.067 4.106-2.471 5.279-4.213a10.09 10.09 0 0 0 1.76-5.76c0-1.956-.409-3.574-1.227-4.854a9.19 9.19 0 0 0-3.092-3.094c-1.28-.782-2.703-1.405-4.268-1.867-1.529-.462-3.076-.871-4.641-1.227-1.529-.356-2.933-.711-4.213-1.066s-2.311-.818-3.094-1.387c-.782-.604-1.172-1.386-1.172-2.346 0-.818.231-1.53.693-2.135.462-.64 1.226-1.156 2.293-1.547s2.434-.586 4.106-.586 3.379.248 5.121.746c1.742.462 3.484 1.192 5.227 2.188l2.666-6.561c-1.742-1.102-3.75-1.92-6.025-2.453-2.276-.569-4.587-.854-6.934-.854zm39.76 0c-2.916 0-5.619.479-8.107 1.439s-4.657 2.312-6.506 4.055-3.289 3.786-4.32 6.133c-.996 2.347-1.494 4.906-1.494 7.68s.499 5.333 1.494 7.68c1.031 2.347 2.452 4.393 4.266 6.135 1.849 1.742 4.019 3.093 6.508 4.053 2.524.96 5.262 1.439 8.213 1.439 2.916 0 5.599-.479 8.053-1.439 2.489-.96 4.642-2.293 6.455-4 1.849-1.742 3.287-3.786 4.318-6.133 1.031-2.382 1.547-4.961 1.547-7.734 0-2.809-.516-5.369-1.547-7.68-1.031-2.347-2.469-4.391-4.318-6.133-1.813-1.742-3.966-3.095-6.455-4.055-2.453-.96-5.154-1.439-8.105-1.439zm183.174 0c-2.916 0-5.619.479-8.107 1.439s-4.657 2.312-6.506 4.055a18.64 18.64 0 0 0-4.32 6.133c-.996 2.347-1.494 4.906-1.494 7.68s.499 5.333 1.494 7.68c1.031 2.347 2.452 4.393 4.266 6.135 1.849 1.742 4.019 3.093 6.508 4.053 2.524.96 5.262 1.439 8.213 1.439 2.916 0 5.599-.479 8.053-1.439 2.489-.96 4.64-2.293 6.453-4a18.64 18.64 0 0 0 4.32-6.133c1.031-2.382 1.547-4.961 1.547-7.734 0-2.809-.516-5.369-1.547-7.68a18.64 18.64 0 0 0-4.32-6.133c-1.813-1.742-3.964-3.095-6.453-4.055-2.453-.96-5.154-1.439-8.105-1.439zm97.627 0c-2.916 0-5.601.479-8.055 1.439-2.453.924-4.604 2.258-6.453 4-1.813 1.742-3.235 3.788-4.266 6.135-.996 2.347-1.494 4.924-1.494 7.732s.499 5.388 1.494 7.734c1.031 2.347 2.452 4.391 4.266 6.133s3.947 3.093 6.4 4.053c2.489.924 5.173 1.387 8.053 1.387 3.271 0 6.205-.569 8.801-1.707 2.631-1.138 4.835-2.79 6.613-4.959l-5.547-5.121c-1.28 1.493-2.703 2.615-4.268 3.361-1.564.711-3.27 1.066-5.119 1.066-1.742 0-3.343-.285-4.801-.854s-2.719-1.386-3.785-2.453-1.903-2.329-2.508-3.787c-.569-1.458-.854-3.076-.854-4.854s.285-3.396.854-4.854c.604-1.458 1.441-2.718 2.508-3.785s2.327-1.886 3.785-2.455 3.059-.852 4.801-.852c1.849 0 3.555.372 5.119 1.119 1.564.711 2.988 1.796 4.268 3.254l5.547-5.121c-1.778-2.169-3.982-3.804-6.613-4.906-2.596-1.138-5.511-1.707-8.746-1.707zm38.318 0c-2.916 0-5.617.479-8.105 1.439s-4.659 2.312-6.508 4.055-3.287 3.786-4.318 6.133c-.996 2.347-1.494 4.906-1.494 7.68s.499 5.333 1.494 7.68c1.031 2.347 2.452 4.393 4.266 6.135 1.849 1.742 4.019 3.093 6.508 4.053 2.524.96 5.262 1.439 8.213 1.439 2.916 0 5.599-.479 8.053-1.439 2.489-.96 4.64-2.293 6.453-4a18.64 18.64 0 0 0 4.32-6.133c1.031-2.382 1.547-4.961 1.547-7.734 0-2.809-.516-5.369-1.547-7.68a18.64 18.64 0 0 0-4.32-6.133c-1.813-1.742-3.964-3.095-6.453-4.055-2.453-.96-5.156-1.439-8.107-1.439zm277.627 0c-2.987 0-5.724.479-8.213 1.439-2.489.924-4.657 2.258-6.506 4a18.65 18.65 0 0 0-4.32 6.135c-.996 2.347-1.494 4.924-1.494 7.732s.499 5.388 1.494 7.734c1.031 2.347 2.452 4.391 4.266 6.133 1.849 1.742 4 3.093 6.453 4.053 2.489.924 5.209 1.387 8.16 1.387 2.667 0 5.333-.409 8-1.227 2.702-.818 5.067-1.991 7.094-3.52V55.648h-7.893v10.967a12.83 12.83 0 0 1-1.76.766 15.59 15.59 0 0 1-4.961.801c-1.778 0-3.413-.285-4.906-.854-1.458-.569-2.738-1.386-3.84-2.453-1.067-1.102-1.903-2.382-2.508-3.84-.569-1.458-.853-3.059-.853-4.801 0-1.778.285-3.396.853-4.854a11.54 11.54 0 0 1 2.508-3.785c1.102-1.067 2.399-1.886 3.893-2.455s3.148-.852 4.961-.852c1.884 0 3.627.355 5.227 1.066 1.6.676 3.075 1.724 4.426 3.146l5.547-5.121c-1.813-2.098-4.054-3.697-6.721-4.799-2.631-1.102-5.6-1.654-8.906-1.654zm-831.732.641v37.334h8.639V64.607h7.522c3.342 0 6.221-.533 8.639-1.6 2.418-1.102 4.284-2.667 5.6-4.693s1.975-4.426 1.975-7.199c0-2.809-.659-5.227-1.975-7.254s-3.182-3.574-5.6-4.641c-2.418-1.102-5.296-1.652-8.639-1.652zm39.705 0v37.334h8.641V59.596h16.961v15.307h8.639V37.568h-8.639v14.721h-16.961V37.568zm44.295 0v37.334h8.639V37.568zm18.693 0v37.334h27.359v-7.041h-18.721V37.568zm160.426 0v37.334h8.641V64.607h7.52c3.342 0 6.223-.533 8.641-1.6 2.418-1.102 4.284-2.667 5.6-4.693s1.973-4.426 1.973-7.199c0-2.809-.657-5.227-1.973-7.254s-3.182-3.574-5.6-4.641c-2.418-1.102-5.298-1.652-8.641-1.652zm39.707 0v37.334h8.641V59.596h16.959v15.307h8.641V37.568h-8.641v14.721h-16.959V37.568zm38.533 0l14.453 24.023v13.311h8.641V61.684L571.6 37.568h-8.48l-9.994 16.572-9.951-16.572zm104.934 0v37.334h8.641V61.301h17.279v-6.934h-17.279v-9.865h19.572v-6.934zm135.947 0v37.334h8.105V52.975l10.934 17.98h3.895l10.992-18.463.046 22.41h8.107l-.107-37.334h-7.094l-13.75 23.18-13.982-23.18zm52.133 0v37.334h8.641V64.607h7.52c3.342 0 6.223-.533 8.641-1.6 2.418-1.102 4.284-2.667 5.6-4.693s1.973-4.426 1.973-7.199c0-2.809-.657-5.227-1.973-7.254s-3.182-3.574-5.6-4.641c-2.418-1.102-5.298-1.652-8.641-1.652zm39.227 0v20.906c0 5.476 1.494 9.69 4.481 12.641s7.128 4.426 12.426 4.426 9.441-1.475 12.428-4.426 4.478-7.165 4.478-12.641V37.568h-8.533v20.586c0 3.556-.728 6.115-2.186 7.68s-3.502 2.348-6.133 2.348-4.677-.783-6.135-2.348-2.186-4.124-2.186-7.68V37.568zm38.586 0v7.039h11.947v30.295h8.641V44.607h11.945v-7.039zm38.375 0v37.334h8.639V37.568zm18.693 0v37.334h8.533v-22.66l18.613 22.66h7.092V37.568H987.6v22.648l-18.559-22.648zm-615.707 6.721c1.671 0 3.216.283 4.639.852s2.649 1.388 3.68 2.455c1.067 1.067 1.884 2.327 2.453 3.785.604 1.458.908 3.076.908 4.854s-.304 3.396-.908 4.854a10.88 10.88 0 0 1-2.453 3.787c-1.067 1.067-2.31 1.884-3.732 2.453-1.387.569-2.915.854-4.586.854s-3.218-.285-4.641-.854a11 11 0 0 1-3.734-2.453c-1.031-1.067-1.849-2.329-2.453-3.787-.569-1.493-.854-3.111-.854-4.854 0-1.778.285-3.396.854-4.854.604-1.458 1.441-2.718 2.508-3.785s2.293-1.886 3.68-2.455c1.422-.569 2.969-.852 4.641-.852zm81.439 0c1.671 0 3.218.283 4.641.852s2.649 1.388 3.68 2.455c1.067 1.067 1.884 2.327 2.453 3.785.604 1.458.906 3.076.906 4.854s-.302 3.396-.906 4.854c-.569 1.458-1.387 2.72-2.453 3.787a11 11 0 0 1-3.734 2.453c-1.387.569-2.915.854-4.586.854s-3.218-.285-4.641-.854-2.666-1.386-3.732-2.453c-1.031-1.067-1.849-2.329-2.453-3.787-.569-1.493-.853-3.111-.853-4.854 0-1.778.285-3.396.853-4.854.604-1.458 1.439-2.718 2.506-3.785s2.293-1.886 3.68-2.455c1.422-.569 2.969-.852 4.641-.852zm183.174 0c1.671 0 3.216.283 4.639.852a10.46 10.46 0 0 1 3.682 2.455c1.067 1.067 1.884 2.327 2.453 3.785.604 1.458.906 3.076.906 4.854s-.302 3.396-.906 4.854c-.569 1.458-1.387 2.72-2.453 3.787a11 11 0 0 1-3.734 2.453c-1.387.569-2.915.854-4.586.854s-3.218-.285-4.641-.854a10.99 10.99 0 0 1-3.732-2.453c-1.031-1.067-1.851-2.329-2.455-3.787-.569-1.493-.852-3.111-.852-4.854 0-1.778.283-3.396.852-4.854.604-1.458 1.441-2.718 2.508-3.785s2.293-1.886 3.68-2.455c1.422-.569 2.969-.852 4.641-.852zm135.945 0c1.671 0 3.218.283 4.641.852s2.649 1.388 3.68 2.455c1.067 1.067 1.884 2.327 2.453 3.785.604 1.458.908 3.076.908 4.854s-.304 3.396-.908 4.854c-.569 1.458-1.386 2.72-2.453 3.787s-2.31 1.884-3.732 2.453c-1.387.569-2.917.854-4.588.854s-3.216-.285-4.639-.854a11 11 0 0 1-3.734-2.453c-1.031-1.067-1.849-2.329-2.453-3.787-.569-1.493-.854-3.111-.854-4.854 0-1.778.285-3.396.854-4.854.604-1.458 1.441-2.718 2.508-3.785s2.293-1.886 3.68-2.455c1.422-.569 2.968-.852 4.639-.852zm-545.467.318h7.041c2.667 0 4.657.569 5.973 1.707s1.973 2.739 1.973 4.801c0 2.027-.657 3.608-1.973 4.746s-3.306 1.707-5.973 1.707h-7.041zm263.121 0h7.039c2.667 0 4.659.569 5.975 1.707s1.973 2.739 1.973 4.801c0 2.027-.657 3.608-1.973 4.746s-3.308 1.707-5.975 1.707H464.4zm371.254 0h7.039c2.667 0 4.657.569 5.973 1.707s1.975 2.739 1.975 4.801c0 2.027-.659 3.608-1.975 4.746s-3.306 1.707-5.973 1.707h-7.039zM80 0a5.34 5.34 0 0 0-5.34 5.34c0 1.925 1.035 3.702 2.712 4.648l2.63 13.12L82.612 10a5.33 5.33 0 0 0 2.728-4.66A5.34 5.34 0 0 0 80 0M45.122 8.746c-.937-.033-1.866.182-2.694.622a5.34 5.34 0 0 0-2.208 7.222c.902 1.7 2.651 2.783 4.576 2.832l8.482 10.35-3.85-12.8a5.33 5.33 0 0 0 .224-5.394c-.894-1.685-2.621-2.764-4.528-2.83zm69.756 0c-1.907.066-3.634 1.145-4.528 2.83a5.33 5.33 0 0 0 .224 5.394l-3.85 12.798 8.482-10.35c1.925-.049 3.674-1.132 4.576-2.832a5.34 5.34 0 0 0-2.208-7.22c-.828-.44-1.757-.655-2.694-.622zM80 28.47a51.56 51.56 0 0 0-45.148 26.66L0 60.462l38.12.002c7.596-16.265 23.927-26.661 41.881-26.661s34.285 10.395 41.881 26.661H160l-34.85-5.334A51.56 51.56 0 0 0 80 28.47m-62.248 4.458c-1.658.1-3.174.967-4.102 2.344a5.34 5.34 0 0 0 1.442 7.412c1.595 1.078 3.648 1.212 5.37.352l12.348 5.158L23.4 38.7a5.33 5.33 0 0 0-2.336-4.868c-.974-.657-2.139-.974-3.312-.902zm124.494 0c-1.173-.072-2.338.245-3.312.902a5.33 5.33 0 0 0-2.336 4.868l-9.41 9.494 12.348-5.158c1.722.86 3.775.726 5.37-.352a5.34 5.34 0 0 0 1.442-7.412c-.928-1.377-2.444-2.244-4.102-2.344zM80 44.466c-17.919 0-33.037 13.332-35.276 31.106H24.068a12.44 12.44 0 0 0-11.624-7.998C5.571 67.572-.001 73.143 0 80.016S5.571 92.46 12.444 92.458a12.44 12.44 0 0 0 11.624-8h20.656c2.239 17.774 17.357 31.105 35.276 31.106s33.037-13.332 35.276-31.106h20.656a12.44 12.44 0 0 0 11.624 7.998c6.873.002 12.445-5.569 12.444-12.442s-5.571-12.444-12.444-12.442a12.44 12.44 0 0 0-11.624 7.998h-20.656C113.036 57.797 97.918 44.467 80 44.466m0 8.888c14.727 0 26.666 11.937 26.666 26.662s-11.94 26.66-26.666 26.66-26.665-11.936-26.666-26.66S65.273 53.354 80 53.354m0 10.664c-8.837 0-16 7.162-16 15.996S71.163 96.01 80 96.01a16 16 0 0 0 16-15.994c0-8.835-7.163-15.998-16-15.998m67.556 7.702a8.3 8.3 0 0 1 8.296 8.296 8.3 8.3 0 0 1-8.296 8.296 8.3 8.3 0 0 1-8.296-8.296 8.3 8.3 0 0 1 8.296-8.296m0 4.146a4.15 4.15 0 0 0-4.148 4.148 4.15 4.15 0 0 0 4.148 4.146 4.15 4.15 0 0 0 4.148-4.146 4.15 4.15 0 0 0-4.148-4.146zM0 99.566l34.85 5.334a51.56 51.56 0 0 0 90.3-.002l34.842-5.33H121.88c-7.597 16.265-23.927 26.661-41.881 26.661s-34.284-10.396-41.881-26.661zm18.406 16.846c-1.173-.072-2.338.245-3.312.902a5.34 5.34 0 1 0 5.972 8.854 5.34 5.34 0 0 0 1.442-7.412c-.928-1.377-2.444-2.244-4.102-2.344m123.19 0c-1.658.1-3.174.967-4.102 2.344a5.34 5.34 0 1 0 8.856 5.97 5.34 5.34 0 0 0-1.442-7.412c-.974-.657-2.139-.974-3.312-.902m-96.848 24.172c-1.908.065-3.635 1.144-4.53 2.83a5.34 5.34 0 1 0 9.432 5.014 5.34 5.34 0 0 0-2.208-7.222c-.828-.44-1.757-.655-2.694-.622m70.502 0c-.937-.033-1.866.182-2.694.622a5.34 5.34 0 1 0 5.016 9.43 5.34 5.34 0 0 0 2.208-7.222c-.894-1.685-2.621-2.764-4.528-2.83zM80 149.322a5.34 5.34 0 0 0-5.34 5.338 5.34 5.34 0 0 0 10.68 0 5.34 5.34 0 0 0-5.34-5.338"/></svg>
