<svg xmlns="http://www.w3.org/2000/svg" width="360" height="460"><path  fill="#e3e2db" d="M180 0c-5.898 0-10.68 4.782-10.68 10.68a10.66 10.66 0 0 0 5.424 9.296l5.26 26.24 5.22-26.216c3.374-1.889 5.462-5.454 5.456-9.32C190.68 4.782 185.898 0 180 0m-69.756 17.492a10.67 10.67 0 0 0-5.388 1.244c-5.208 2.769-7.185 9.236-4.416 14.444a10.67 10.67 0 0 0 9.152 5.664l16.964 20.7-7.7-25.6a10.66 10.66 0 0 0 .448-10.788 10.67 10.67 0 0 0-9.056-5.66zm139.512 0a10.67 10.67 0 0 0-9.056 5.66 10.66 10.66 0 0 0 .448 10.788l-7.7 25.596 16.964-20.7a10.67 10.67 0 0 0 9.152-5.664c2.767-5.207.79-11.671-4.416-14.44a10.67 10.67 0 0 0-5.388-1.244zM180 56.941c-37.566 0-72.159 20.428-90.296 53.32L20 120.925l76.24.004a92.45 92.45 0 0 1 167.524 0H340l-69.7-10.668a103.12 103.12 0 0 0-90.3-53.32M55.504 65.857a10.67 10.67 0 0 0-8.204 4.688c-3.296 4.89-2.005 11.526 2.884 14.824a10.67 10.67 0 0 0 10.74.704L85.62 96.389 66.8 77.401c.323-3.852-1.465-7.577-4.672-9.736a10.67 10.67 0 0 0-6.624-1.804zm248.988 0a10.67 10.67 0 0 0-6.624 1.804c-3.207 2.159-4.995 5.884-4.672 9.736l-18.82 18.988 24.696-10.316a10.67 10.67 0 0 0 10.74-.704c4.889-3.298 6.18-9.934 2.884-14.824a10.67 10.67 0 0 0-8.204-4.688zM180 88.933c-35.837 0-66.074 26.664-70.552 62.212H68.136a24.88 24.88 0 0 0-23.248-15.996c-13.746-.004-24.89 11.139-24.888 24.884-.004 13.746 11.142 24.888 24.888 24.884a24.88 24.88 0 0 0 23.248-16h41.312c4.478 35.548 34.715 62.211 70.552 62.212s66.074-26.664 70.552-62.212h41.312a24.88 24.88 0 0 0 23.248 15.996c13.746.004 24.89-11.138 24.888-24.884.004-13.746-11.143-24.888-24.888-24.884a24.88 24.88 0 0 0-23.248 15.996h-41.312c-4.48-35.547-34.716-62.207-70.552-62.208m0 17.776c29.455 0 53.332 23.874 53.332 53.324s-23.879 53.32-53.332 53.32-53.33-23.872-53.332-53.32 23.878-53.324 53.332-53.324m0 21.328c-17.673 0-32 14.323-32 31.992s14.327 31.992 32 31.992 31.998-14.321 32-31.988-14.325-31.996-32-31.996m135.112 15.404c9.162.004 16.588 7.43 16.592 16.592-.004 9.162-7.43 16.588-16.592 16.592-9.162-.004-16.588-7.43-16.592-16.592.004-9.162 7.43-16.588 16.592-16.592m0 8.292a8.3 8.3 0 0 0-8.296 8.296 8.3 8.3 0 0 0 8.296 8.292 8.3 8.3 0 0 0 8.296-8.292 8.3 8.3 0 0 0-8.296-8.292zM20 199.133l69.7 10.668a103.12 103.12 0 0 0 90.301 53.316c37.567-.001 72.161-20.428 90.299-53.32l69.684-10.66H263.76a92.45 92.45 0 0 1-167.524 0zm36.812 33.692a10.67 10.67 0 0 0-6.624 1.804c-4.889 3.298-6.18 9.934-2.884 14.824s9.937 6.183 14.828 2.884 6.18-9.934 2.884-14.824a10.67 10.67 0 0 0-8.204-4.688m246.38 0a10.67 10.67 0 0 0-8.204 4.688c-3.296 4.89-2.005 11.526 2.884 14.824s11.53 2.008 14.828-2.884 2.005-11.526-2.884-14.824a10.67 10.67 0 0 0-6.624-1.804m-193.696 48.344a10.67 10.67 0 0 0-9.06 5.66c-2.769 5.208-.792 11.675 4.416 14.444s11.679.794 14.448-4.416.792-11.675-4.416-14.444a10.67 10.67 0 0 0-5.388-1.244m141.004 0a10.67 10.67 0 0 0-5.388 1.244c-5.208 2.769-7.185 9.236-4.416 14.444s9.239 7.188 14.448 4.416 7.185-9.236 4.416-14.444a10.67 10.67 0 0 0-9.056-5.66zM180 298.645c-5.897 0-10.678 4.779-10.68 10.676s4.782 10.68 10.68 10.68 10.68-4.782 10.68-10.68-4.783-10.676-10.68-10.676m152.834 139.23l-3.377 3.213h2.234l4.17-3.213zM9.308 442.299c-1.357 0-2.599.223-3.725.668-1.125.429-2.109 1.046-2.953 1.854-.827.791-1.472 1.724-1.936 2.795s-.695 2.25-.695 3.535.232 2.464.695 3.535 1.108 2.011 1.936 2.818c.827.791 1.805 1.409 2.93 1.854 1.125.429 2.357.643 3.697.643a11.65 11.65 0 0 0 3.549-.543c1.158-.379 2.169-.931 3.029-1.656v-6.75h-2.383v5.633c-.45.295-.923.527-1.416.697-.844.28-1.728.42-2.654.42-.993 0-1.912-.164-2.756-.494s-1.58-.791-2.209-1.385a6.72 6.72 0 0 1-1.439-2.127c-.331-.824-.496-1.705-.496-2.645 0-.956.165-1.837.496-2.645.347-.824.827-1.534 1.439-2.127.629-.593 1.365-1.055 2.209-1.385.86-.33 1.786-.494 2.779-.494.976 0 1.88.165 2.707.494.844.313 1.62.816 2.332 1.508l1.539-1.533c-.794-.89-1.763-1.557-2.904-2.002s-2.398-.668-3.771-.668zm77.641 0c-1.34 0-2.574.223-3.699.668s-2.1 1.071-2.928 1.879c-.827.791-1.472 1.722-1.936 2.793s-.695 2.243-.695 3.512.232 2.438.695 3.51 1.108 2.011 1.936 2.818c.827.791 1.803 1.41 2.928 1.855 1.142.445 2.375.666 3.699.666s2.54-.214 3.648-.643c1.125-.445 2.102-1.062 2.93-1.854.844-.808 1.489-1.747 1.936-2.818.463-1.071.695-2.25.695-3.535s-.232-2.464-.695-3.535c-.447-1.071-1.092-2.004-1.936-2.795-.827-.808-1.804-1.425-2.93-1.854-1.109-.445-2.325-.668-3.648-.668zm136.979 0c-1.522 0-2.779.232-3.771.693-.976.445-1.706 1.047-2.186 1.805-.463.742-.695 1.557-.695 2.447 0 .923.192 1.68.572 2.273.381.577.876 1.039 1.488 1.385.629.346 1.316.635 2.061.865a41.17 41.17 0 0 0 2.258.568c.745.165 1.423.363 2.035.594.629.214 1.135.503 1.516.865.397.363.596.84.596 1.434 0 .511-.149.973-.447 1.385-.298.396-.762.709-1.391.939s-1.448.348-2.457.348a9.16 9.16 0 0 1-3.201-.57c-1.026-.379-1.869-.857-2.531-1.434l-.92 1.93c.695.643 1.648 1.17 2.855 1.582a12.12 12.12 0 0 0 3.797.592c1.522 0 2.781-.221 3.773-.666 1.009-.461 1.753-1.063 2.232-1.805.48-.758.721-1.574.721-2.447 0-.906-.19-1.65-.57-2.227s-.885-1.039-1.514-1.385a9.28 9.28 0 0 0-2.061-.84 36.98 36.98 0 0 0-2.234-.568 24.03 24.03 0 0 1-2.061-.594c-.612-.214-1.117-.503-1.514-.865-.381-.363-.57-.849-.57-1.459a2.4 2.4 0 0 1 .422-1.385c.298-.412.76-.741 1.389-.988s1.432-.371 2.408-.371c.778 0 1.581.115 2.408.346a7.76 7.76 0 0 1 2.357 1.064l.818-1.979c-.728-.494-1.587-.873-2.58-1.137a11.66 11.66 0 0 0-3.004-.396zm42.035 0c-1.357 0-2.597.223-3.723.668-1.125.429-2.109 1.046-2.953 1.854-.827.791-1.472 1.724-1.936 2.795s-.695 2.25-.695 3.535.232 2.464.695 3.535 1.108 2.011 1.936 2.818c.827.791 1.804 1.409 2.93 1.854 1.125.429 2.357.643 3.697.643a11.65 11.65 0 0 0 3.549-.543c1.158-.379 2.169-.931 3.029-1.656v-6.75h-2.383v5.633c-.45.295-.923.527-1.416.697-.844.28-1.728.42-2.654.42-.993 0-1.912-.164-2.756-.494s-1.58-.791-2.209-1.385a6.72 6.72 0 0 1-1.439-2.127c-.331-.824-.496-1.705-.496-2.645 0-.956.165-1.837.496-2.645.347-.824.827-1.534 1.439-2.127.629-.593 1.365-1.055 2.209-1.385.86-.33 1.786-.494 2.779-.494.976 0 1.878.165 2.705.494.844.313 1.622.816 2.334 1.508l1.539-1.533c-.794-.89-1.763-1.557-2.904-2.002s-2.4-.668-3.773-.668zm38.449 0c-1.324 0-2.549.223-3.674.668a8.49 8.49 0 0 0-2.904 1.854c-.827.791-1.472 1.724-1.936 2.795s-.695 2.25-.695 3.535.232 2.464.695 3.535 1.101 2.011 1.912 2.818c.827.791 1.796 1.409 2.904 1.854 1.125.429 2.348.643 3.672.643 1.357 0 2.599-.23 3.725-.691 1.142-.461 2.108-1.137 2.902-2.027l-1.613-1.557c-.662.709-1.405 1.236-2.232 1.582a7.11 7.11 0 0 1-2.656.494c-.976 0-1.887-.164-2.73-.494-.827-.33-1.548-.791-2.16-1.385s-1.092-1.294-1.439-2.102c-.331-.824-.496-1.714-.496-2.67s.165-1.837.496-2.645c.347-.824.827-1.534 1.439-2.127s1.333-1.055 2.16-1.385c.844-.33 1.754-.494 2.73-.494.943 0 1.829.173 2.656.52.827.33 1.571.841 2.232 1.533l1.613-1.559c-.794-.89-1.761-1.557-2.902-2.002-1.125-.461-2.359-.693-3.699-.693zm26.906 0c-1.34 0-2.572.223-3.697.668a8.75 8.75 0 0 0-2.93 1.879c-.827.791-1.472 1.722-1.936 2.793s-.695 2.243-.695 3.512.232 2.438.695 3.51 1.108 2.011 1.936 2.818c.827.791 1.804 1.41 2.93 1.855 1.142.445 2.373.666 3.697.666s2.542-.214 3.65-.643c1.125-.445 2.1-1.062 2.928-1.854.844-.808 1.489-1.747 1.936-2.818.463-1.071.695-2.25.695-3.535s-.232-2.464-.695-3.535c-.447-1.071-1.092-2.004-1.936-2.795-.827-.808-1.803-1.425-2.928-1.854-1.109-.445-2.327-.668-3.65-.668zm-310.01.199v17.305h2.482v-5.266h4.295a13.07 13.07 0 0 0 1.104-.045l3.736 5.311h2.705l-4.121-5.793a7 7 0 0 0 .473-.189c1.076-.478 1.903-1.163 2.482-2.053.579-.906.867-1.986.867-3.238 0-1.895-.645-3.371-1.936-4.426-1.291-1.071-3.06-1.605-5.311-1.605zm18.629 0v9.838c0 2.505.654 4.409 1.961 5.711S45.001 460 47.285 460c2.3 0 4.094-.651 5.385-1.953 1.307-1.302 1.961-3.206 1.961-5.711v-9.838h-2.406v9.74c0 1.928-.431 3.337-1.291 4.227-.844.89-2.053 1.336-3.625 1.336-1.555 0-2.763-.446-3.623-1.336-.844-.89-1.266-2.298-1.266-4.227v-9.74zm20.516 0v17.305h2.482v-5.24h4.293c1.522 0 2.821-.239 3.896-.717 1.076-.494 1.903-1.188 2.482-2.078.579-.906.869-1.986.869-3.238s-.29-2.332-.869-3.238-1.407-1.598-2.482-2.076-2.374-.717-3.896-.717zm47.645 0v17.305h7.322c1.853 0 3.482-.363 4.889-1.088 1.423-.725 2.525-1.739 3.303-3.041.794-1.302 1.191-2.809 1.191-4.523s-.397-3.223-1.191-4.525c-.778-1.302-1.88-2.314-3.303-3.039-1.407-.725-3.035-1.088-4.889-1.088zm21.234 0v17.305h12.609v-2.15h-10.127v-5.588h8.713v-2.102h-8.713v-5.314h9.779v-2.15zm24.773 0v17.305h2.48v-17.305zm8.426 0v17.305h2.482v-12.897l10.426 12.897h2.035v-17.305h-2.482v12.897l-10.424-12.897zm17.885 0l7.645 17.305h2.457l7.621-17.305h-2.482l-6.303 14.227-6.256-14.227zm20.664 0v17.305h12.609v-2.15h-10.127v-5.588h8.711v-2.102h-8.711v-5.314h9.779v-2.15zm30.754 0v2.15h5.957v15.154h2.457v-15.154h5.957v-2.15zm17.809 0v17.305h2.482v-17.305zm33.561 0l-7.869 17.305h2.557l1.908-4.326h9.24l1.908 4.326h2.605l-7.893-17.305zm31.846 0v17.305h2.482v-17.305zm30.01 0v17.305h2.482v-12.893l10.424 12.893H360v-17.305h-2.482v12.893l-10.424-12.893zM86.949 444.5c.96 0 1.845.165 2.656.494.827.33 1.539.8 2.135 1.41.612.593 1.083 1.294 1.414 2.102.347.808.521 1.689.521 2.645s-.174 1.837-.521 2.645a6.39 6.39 0 0 1-1.414 2.127c-.596.593-1.307 1.055-2.135 1.385-.811.33-1.697.494-2.656.494-.976 0-1.878-.164-2.705-.494-.811-.33-1.523-.791-2.135-1.385-.612-.61-1.092-1.319-1.439-2.127-.331-.808-.496-1.689-.496-2.645s.165-1.837.496-2.645c.347-.808.827-1.508 1.439-2.102a6.42 6.42 0 0 1 2.135-1.41c.827-.33 1.729-.494 2.705-.494zm244.37 0c.96 0 1.845.165 2.656.494.827.33 1.539.8 2.135 1.41.612.593 1.083 1.294 1.414 2.102.347.808.521 1.689.521 2.645s-.174 1.837-.521 2.645a6.39 6.39 0 0 1-1.414 2.127c-.596.593-1.307 1.055-2.135 1.385-.811.33-1.697.494-2.656.494-.976 0-1.878-.164-2.705-.494-.811-.33-1.523-.791-2.135-1.385a6.72 6.72 0 0 1-1.439-2.127c-.331-.808-.496-1.689-.496-2.645s.165-1.837.496-2.645c.347-.808.827-1.508 1.439-2.102a6.42 6.42 0 0 1 2.135-1.41c.827-.33 1.729-.494 2.705-.494zm-307.528.148h4.219c1.589 0 2.789.338 3.6 1.014.827.676 1.242 1.631 1.242 2.867s-.415 2.2-1.242 2.893c-.811.676-2.011 1.014-3.6 1.014h-4.219zm39.145 0h4.219c1.589 0 2.789.338 3.6 1.014.827.676 1.24 1.631 1.24 2.867s-.413 2.191-1.24 2.867c-.811.676-2.011 1.014-3.6 1.014h-4.219zm47.645 0h4.691c1.44 0 2.68.273 3.723.816 1.059.544 1.878 1.301 2.457 2.273s.869 2.11.869 3.412c0 1.286-.29 2.423-.869 3.412-.579.972-1.398 1.73-2.457 2.273-1.042.544-2.283.816-3.723.816h-4.691zm173.838.357l3.748 8.492h-7.494zm25.639-55.764l-6.027 6.402h5.445l8.08-6.402zm-293.094 8.402c-2.44 0-4.687.401-6.74 1.201-2.053.771-3.855 1.882-5.402 3.334-1.518 1.452-2.707 3.157-3.57 5.113-.833 1.956-1.25 4.106-1.25 6.447s.417 4.491 1.25 6.447c.863 1.956 2.053 3.661 3.57 5.113s3.304 2.579 5.357 3.379c2.083.771 4.33 1.156 6.74 1.156 2.738 0 5.193-.475 7.365-1.424 2.202-.949 4.047-2.327 5.535-4.135l-4.643-4.268c-1.071 1.245-2.263 2.178-3.572 2.801-1.309.593-2.738.889-4.285.889-1.458 0-2.796-.237-4.016-.711s-2.277-1.156-3.17-2.045-1.592-1.941-2.098-3.156c-.476-1.215-.715-2.565-.715-4.047s.239-2.832.715-4.047c.506-1.215 1.205-2.267 2.098-3.156s1.95-1.571 3.17-2.045 2.558-.711 4.016-.711c1.547 0 2.976.311 4.285.934 1.309.593 2.501 1.498 3.572 2.713l4.643-4.27c-1.488-1.808-3.333-3.171-5.535-4.09-2.172-.948-4.612-1.424-7.32-1.424zm31.777 0c-2.44 0-4.702.401-6.785 1.201s-3.898 1.927-5.445 3.379-2.754 3.157-3.617 5.113c-.833 1.956-1.25 4.09-1.25 6.402s.417 4.446 1.25 6.402a15.87 15.87 0 0 0 3.572 5.113c1.547 1.452 3.362 2.579 5.445 3.379 2.113.8 4.403 1.201 6.873 1.201 2.44 0 4.687-.401 6.74-1.201 2.083-.8 3.885-1.911 5.402-3.334a15.54 15.54 0 0 0 3.615-5.113c.863-1.986 1.295-4.135 1.295-6.447 0-2.342-.432-4.476-1.295-6.402-.863-1.956-2.068-3.661-3.615-5.113-1.518-1.452-3.319-2.579-5.402-3.379-2.053-.8-4.313-1.201-6.783-1.201zm210.84 0c-2.44 0-4.687.401-6.74 1.201-2.053.771-3.855 1.882-5.402 3.334-1.518 1.452-2.707 3.157-3.57 5.113-.833 1.956-1.25 4.106-1.25 6.447s.417 4.491 1.25 6.447c.863 1.956 2.053 3.661 3.57 5.113s3.304 2.579 5.357 3.379c2.083.771 4.33 1.156 6.74 1.156 2.738 0 5.193-.475 7.365-1.424 2.202-.949 4.047-2.327 5.535-4.135l-4.643-4.268c-1.071 1.245-2.261 2.178-3.57 2.801-1.309.593-2.738.889-4.285.889-1.458 0-2.798-.237-4.018-.711s-2.277-1.156-3.17-2.045-1.592-1.941-2.098-3.156c-.476-1.215-.715-2.565-.715-4.047s.239-2.832.715-4.047c.506-1.215 1.205-2.267 2.098-3.156s1.95-1.571 3.17-2.045 2.559-.711 4.018-.711c1.547 0 2.976.311 4.285.934 1.309.593 2.499 1.498 3.57 2.713l4.643-4.27c-1.488-1.808-3.333-3.171-5.535-4.09-2.172-.948-4.612-1.424-7.32-1.424zm48.512 0c-2.44 0-4.702.401-6.785 1.201s-3.898 1.927-5.445 3.379a15.54 15.54 0 0 0-3.615 5.113c-.833 1.956-1.25 4.09-1.25 6.402s.417 4.446 1.25 6.402c.863 1.956 2.053 3.661 3.57 5.113 1.547 1.452 3.362 2.579 5.445 3.379 2.113.8 4.405 1.201 6.875 1.201 2.44 0 4.687-.401 6.74-1.201 2.083-.8 3.883-1.911 5.4-3.334a15.54 15.54 0 0 0 3.615-5.113c.863-1.986 1.295-4.135 1.295-6.447 0-2.342-.432-4.476-1.295-6.402a15.54 15.54 0 0 0-3.615-5.113c-1.518-1.452-3.317-2.579-5.4-3.379-2.053-.8-4.315-1.201-6.785-1.201zm-236.102.535v31.121h6.785v-18.275l9.15 14.986h3.26l9.199-15.389.041 18.678h6.783l-.088-31.121h-5.938l-11.508 19.326-11.703-19.326zm43.34 0v31.121h7.23v-8.58h6.293c2.797 0 5.209-.445 7.232-1.334 2.024-.919 3.586-2.223 4.688-3.912s1.65-3.69 1.65-6.002c0-2.342-.549-4.357-1.65-6.047s-2.664-2.98-4.688-3.869c-2.024-.919-4.435-1.377-7.232-1.377zm32.535 0v17.428c0 4.565 1.25 8.077 3.75 10.537s5.966 3.691 10.4 3.691 7.901-1.231 10.4-3.691 3.75-5.972 3.75-10.537V398.18h-7.143v17.16c0 2.964-.61 5.098-1.83 6.402s-2.931 1.957-5.133 1.957-3.913-.653-5.133-1.957-1.83-3.438-1.83-6.402v-17.16zm32.002 0v5.867h9.998v25.254h7.23v-25.254h10v-5.867zm40.078 0l-13.926 31.121h7.41l2.783-6.668h14.484l2.773 6.668h7.588l-13.971-31.121zm57.664 0v31.121h7.23V398.18zm53.734 0v31.121h7.141v-18.891l15.58 18.891H360V398.18h-7.141v18.883l-15.535-18.883zM48.74 403.782c1.399 0 2.693.237 3.883.711s2.217 1.156 3.08 2.045c.893.889 1.577 1.941 2.053 3.156.506 1.215.76 2.565.76 4.047s-.254 2.832-.76 4.047c-.476 1.215-1.16 2.267-2.053 3.156s-1.935 1.571-3.125 2.045c-1.161.474-2.439.711-3.838.711s-2.694-.237-3.885-.711a9.2 9.2 0 0 1-3.123-2.045c-.863-.889-1.549-1.941-2.055-3.156-.476-1.245-.713-2.594-.713-4.047 0-1.482.237-2.832.713-4.047.506-1.215 1.205-2.267 2.098-3.156a9.32 9.32 0 0 1 3.08-2.045c1.19-.474 2.486-.711 3.885-.711zm259.352 0c1.399 0 2.692.237 3.883.711s2.217 1.156 3.08 2.045a9.07 9.07 0 0 1 2.055 3.156c.506 1.215.758 2.565.758 4.047s-.252 2.832-.758 4.047c-.476 1.215-1.162 2.267-2.055 3.156s-1.935 1.571-3.125 2.045c-1.161.474-2.439.711-3.838.711s-2.692-.237-3.883-.711-2.232-1.156-3.125-2.045c-.863-.889-1.547-1.941-2.053-3.156-.476-1.245-.715-2.594-.715-4.047 0-1.482.239-2.832.715-4.047.506-1.215 1.205-2.267 2.098-3.156a9.32 9.32 0 0 1 3.08-2.045c1.19-.474 2.484-.711 3.883-.711zm-185.532.266h5.893c2.232 0 3.897.475 4.998 1.424s1.652 2.283 1.652 4.002c0 1.69-.551 3.009-1.652 3.957s-2.766 1.422-4.998 1.422h-5.893zm100.91 1.203l4.953 11.914h-9.928zm-32.238-57.805l-5.309 5.641h4.799l7.115-5.641zm-112.988 7.402c-2.15 0-4.142.352-5.977 1.057s-3.434 1.697-4.797 2.977a13.69 13.69 0 0 0-3.186 4.504c-.734 1.723-1.102 3.604-1.102 5.641s.368 3.917 1.102 5.641c.76 1.723 1.81 3.225 3.146 4.504 1.363 1.279 2.962 2.272 4.797 2.977 1.861.705 3.879 1.057 6.055 1.057 2.149 0 4.129-.352 5.938-1.057 1.835-.705 3.421-1.684 4.758-2.938a13.69 13.69 0 0 0 3.186-4.504c.76-1.749 1.139-3.643 1.139-5.68 0-2.063-.378-3.943-1.139-5.641a13.69 13.69 0 0 0-3.186-4.504c-1.337-1.279-2.923-2.272-4.758-2.977-1.809-.705-3.801-1.057-5.977-1.057zm31.049 0c-2.595 0-4.758.392-6.488 1.176-1.704.757-2.988 1.788-3.854 3.094-.839 1.279-1.258 2.701-1.258 4.268 0 1.462.289 2.664.865 3.604a7.13 7.13 0 0 0 2.32 2.271 14.62 14.62 0 0 0 3.105 1.41 44.77 44.77 0 0 0 3.422.939c1.153.235 2.201.498 3.145.785.944.261 1.705.613 2.281 1.057.577.418.865.992.865 1.723a2.33 2.33 0 0 1-.551 1.527c-.367.444-.944.797-1.73 1.059-.76.235-1.769.352-3.027.352-1.651 0-3.291-.261-4.916-.783-1.599-.548-2.988-1.241-4.168-2.076l-2.162 4.779c1.232.94 2.859 1.71 4.877 2.311 2.018.574 4.128.861 6.33.861 2.621 0 4.784-.392 6.488-1.176 1.73-.783 3.028-1.814 3.893-3.094s1.297-2.688 1.297-4.229c0-1.436-.301-2.625-.904-3.564-.577-.94-1.338-1.697-2.281-2.272a13.16 13.16 0 0 0-3.145-1.371 50.64 50.64 0 0 0-3.422-.9c-1.127-.261-2.162-.522-3.105-.783s-1.705-.602-2.281-1.02c-.577-.444-.865-1.018-.865-1.723 0-.601.171-1.123.512-1.566.341-.47.905-.85 1.691-1.137s1.795-.43 3.027-.43 2.489.183 3.773.549c1.284.339 2.569.874 3.854 1.605l1.967-4.818c-1.284-.809-2.766-1.409-4.443-1.801-1.678-.418-3.381-.627-5.111-.627zm29.633 0c-2.149 0-4.142.352-5.977 1.057s-3.434 1.697-4.797 2.977a13.69 13.69 0 0 0-3.186 4.504c-.734 1.723-1.1 3.604-1.1 5.641s.366 3.917 1.1 5.641c.76 1.723 1.81 3.225 3.146 4.504 1.363 1.279 2.962 2.272 4.797 2.977 1.861.705 3.879 1.057 6.055 1.057 2.149 0 4.129-.352 5.938-1.057 1.835-.705 3.421-1.684 4.758-2.938a13.69 13.69 0 0 0 3.186-4.504c.76-1.749 1.141-3.643 1.141-5.68 0-2.063-.38-3.943-1.141-5.641-.76-1.723-1.822-3.225-3.186-4.504-1.337-1.279-2.923-2.272-4.758-2.977-1.809-.705-3.801-1.057-5.977-1.057zm-138.926.471v27.414h6.369v-9.986h12.74v-5.092H6.369v-7.244H20.8v-5.092zm26.33 0v27.414h6.371v-27.414zm14.102 0v27.414h20.172v-5.17H46.802v-22.244zm119.557 0v27.414h6.369v-9.986h12.74v-5.092h-12.74v-7.244h14.43v-5.092zm26.33 0v27.414h6.369v-27.414zm22.752 0l-12.268 27.414h6.527l2.453-5.873h12.758l2.443 5.873h6.684l-12.307-27.414zm29.986 0v27.414h12.504c2.988 0 5.622-.561 7.902-1.684 2.281-1.149 4.063-2.741 5.348-4.777 1.284-2.063 1.926-4.478 1.926-7.246 0-2.794-.641-5.21-1.926-7.246s-3.067-3.616-5.348-4.738c-2.281-1.149-4.914-1.723-7.902-1.723zm33.682 0v27.414h21.313v-5.09H279.07v-6.346h12.777v-4.936H279.07v-5.951h14.469v-5.092zm34.902 0v27.414h20.17v-5.17H314.01v-22.244zm33.762 0l-12.27 27.414h6.527l2.453-5.873h12.76l2.443 5.873H360l-12.307-27.414zm-263.159 4.934c1.232 0 2.371.209 3.42.627s1.955 1.019 2.715 1.803a7.98 7.98 0 0 1 1.809 2.779c.446 1.071.668 2.259.668 3.564s-.222 2.494-.668 3.564a7.99 7.99 0 0 1-1.809 2.781c-.786.783-1.705 1.383-2.754 1.801-1.022.418-2.149.627-3.381.627s-2.371-.209-3.42-.627-1.968-1.017-2.754-1.801c-.76-.783-1.363-1.711-1.809-2.781-.419-1.097-.629-2.285-.629-3.564 0-1.305.21-2.494.629-3.564.446-1.07 1.061-1.996 1.848-2.779a8.22 8.22 0 0 1 2.715-1.803c1.049-.418 2.188-.627 3.42-.627zm60.682 0c1.232 0 2.373.209 3.422.627s1.953 1.019 2.713 1.803a7.98 7.98 0 0 1 1.809 2.779c.446 1.071.668 2.259.668 3.564s-.222 2.494-.668 3.564a7.99 7.99 0 0 1-1.809 2.781c-.786.783-1.703 1.383-2.752 1.801-1.022.418-2.151.627-3.383.627s-2.371-.209-3.42-.627-1.968-1.017-2.754-1.801c-.76-.783-1.363-1.711-1.809-2.781-.419-1.097-.629-2.285-.629-3.564 0-1.305.209-2.494.629-3.564.446-1.07 1.063-1.996 1.85-2.779a8.21 8.21 0 0 1 2.713-1.803c1.049-.418 2.188-.627 3.42-.627zm106.5.275h5.818c1.835 0 3.421.352 4.758 1.057 1.363.679 2.413 1.658 3.146 2.938.76 1.253 1.141 2.755 1.141 4.504 0 1.723-.38 3.225-1.141 4.504-.734 1.279-1.783 2.272-3.146 2.977-1.337.679-2.923 1.018-4.758 1.018h-5.818zm99.08 1.02l4.363 10.494h-8.744zm-132.332.004l4.363 10.49h-8.742z"/></svg>
