<svg xmlns="http://www.w3.org/2000/svg" width="360" height="480"><path fill="#e3e2db" d="M117.404 364.125c-2.209 0-4.257.364-6.142 1.093s-3.529 1.754-4.93 3.076a14.15 14.15 0 0 0-3.273 4.655c-.754 1.781-1.131 3.724-1.131 5.828s.377 4.048 1.131 5.829c.781 1.781 1.859 3.332 3.233 4.654 1.401 1.322 3.044 2.348 4.93 3.076 1.913.729 3.987 1.093 6.223 1.093 2.209 0 4.243-.365 6.102-1.093 1.886-.728 3.516-1.74 4.89-3.035a14.15 14.15 0 0 0 3.273-4.655c.781-1.808 1.172-3.764 1.172-5.869 0-2.132-.391-4.074-1.172-5.828a14.15 14.15 0 0 0-3.273-4.655c-1.374-1.322-3.004-2.348-4.89-3.076-1.859-.729-3.907-1.093-6.143-1.093zm31.451 0c-2.667 0-4.889.404-6.668 1.214-1.751.782-3.071 1.848-3.96 3.198-.862 1.322-1.293 2.793-1.293 4.412 0 1.511.296 2.752.889 3.724.62.971 1.415 1.754 2.385 2.347s2.034 1.079 3.192 1.457l3.516.971 3.233.81c.97.27 1.751.634 2.344 1.093a2.08 2.08 0 0 1 .889 1.781c0 .594-.188 1.12-.566 1.579s-.97.823-1.778 1.093c-.781.243-1.818.364-3.111.364-1.697 0-3.381-.27-5.051-.81-1.643-.567-3.072-1.282-4.284-2.145l-2.222 4.938c1.266.971 2.936 1.767 5.011 2.388 2.074.594 4.243.891 6.506.891 2.694 0 4.917-.405 6.668-1.215 1.778-.81 3.112-1.875 4.001-3.198s1.334-2.779 1.334-4.371c0-1.484-.31-2.712-.929-3.683-.593-.971-1.374-1.754-2.344-2.348s-2.047-1.066-3.233-1.417l-3.516-.93-3.193-.81c-.97-.27-1.751-.621-2.344-1.052-.593-.459-.889-1.052-.889-1.781 0-.621.175-1.16.525-1.619.35-.486.929-.877 1.738-1.174s1.846-.445 3.112-.445 2.559.189 3.879.567c1.32.351 2.64.904 3.96 1.659l2.021-4.978c-1.32-.836-2.843-1.457-4.567-1.862a21.55 21.55 0 0 0-5.253-.648zm29.996 0c-2.209 0-4.257.364-6.142 1.093s-3.529 1.754-4.93 3.076a14.15 14.15 0 0 0-3.273 4.655c-.754 1.781-1.131 3.724-1.131 5.828s.377 4.048 1.131 5.829c.781 1.781 1.859 3.332 3.233 4.654 1.401 1.322 3.044 2.348 4.93 3.076 1.913.729 3.987 1.093 6.223 1.093 2.209 0 4.244-.365 6.102-1.093 1.886-.728 3.516-1.74 4.89-3.035 1.401-1.322 2.492-2.874 3.273-4.655.781-1.808 1.172-3.764 1.172-5.869 0-2.132-.391-4.074-1.172-5.828-.781-1.781-1.872-3.333-3.273-4.655-1.374-1.322-3.004-2.348-4.89-3.076-1.859-.729-3.906-1.093-6.143-1.093zm138.585 0c-2.209 0-4.257.364-6.143 1.093s-3.529 1.754-4.93 3.076a14.15 14.15 0 0 0-3.273 4.655c-.754 1.781-1.131 3.724-1.131 5.828s.377 4.048 1.131 5.829c.781 1.781 1.859 3.332 3.233 4.654 1.401 1.322 3.044 2.348 4.93 3.076 1.913.729 3.987 1.093 6.223 1.093 2.209 0 4.244-.365 6.102-1.093 1.886-.728 3.516-1.74 4.89-3.035a14.15 14.15 0 0 0 3.273-4.655c.781-1.808 1.172-3.764 1.172-5.869 0-2.132-.391-4.074-1.172-5.828a14.15 14.15 0 0 0-3.273-4.655c-1.374-1.322-3.004-2.348-4.89-3.076-1.859-.729-3.906-1.093-6.142-1.093zm-117.398.486v28.333h6.547v-7.812h5.698c2.532 0 4.714-.404 6.546-1.214 1.832-.837 3.247-2.024 4.243-3.562s1.495-3.36 1.495-5.465c0-2.132-.498-3.967-1.495-5.505s-2.411-2.712-4.243-3.521c-1.832-.836-4.014-1.255-6.546-1.255zm29.956 0v28.333h6.547v-11.616h12.851v11.616h6.546V364.61h-6.546v11.171H236.54V364.61zm29.511 0l10.951 18.235v10.098h6.546v-10.03l10.992-18.302h-6.425l-7.573 12.577-7.541-12.577zm79.118 0v28.333h6.547v-10.321h13.093v-5.262h-13.093v-7.488H360v-5.262zm-337.048.486v28.333h6.547v-7.811h5.698c2.532 0 4.715-.405 6.547-1.215 1.832-.836 3.247-2.024 4.243-3.562s1.495-3.359 1.495-5.464c0-2.132-.498-3.967-1.495-5.505s-2.411-2.712-4.243-3.522c-1.832-.836-4.014-1.255-6.547-1.255zm29.956 0v28.333h6.547v-11.616h12.851v11.616h6.546v-28.333h-6.546v11.171H38.077v-11.171zm33.431 0v28.333h6.547v-28.333zm14.034 0v28.333h20.731v-5.343H85.542v-22.99zm38.409 4.614c1.266 0 2.438.216 3.516.648s2.007 1.052 2.788 1.862a8.26 8.26 0 0 1 1.859 2.874c.458 1.106.687 2.334.687 3.683s-.229 2.577-.687 3.683c-.431 1.106-1.051 2.065-1.859 2.874a8.33 8.33 0 0 1-2.829 1.862c-1.051.432-2.209.648-3.476.648s-2.438-.216-3.516-.648a8.33 8.33 0 0 1-2.829-1.862c-.781-.81-1.401-1.768-1.859-2.874-.431-1.133-.647-2.361-.647-3.683 0-1.349.216-2.577.647-3.683.458-1.106 1.091-2.065 1.899-2.874s1.738-1.43 2.788-1.862c1.078-.432 2.249-.648 3.516-.648zm61.447 0c1.266 0 2.438.216 3.516.648s2.007 1.052 2.788 1.862a8.26 8.26 0 0 1 1.859 2.874c.458 1.106.686 2.334.686 3.683s-.228 2.577-.686 3.683a8.26 8.26 0 0 1-1.859 2.874 8.33 8.33 0 0 1-2.829 1.862c-1.051.432-2.209.648-3.476.648s-2.438-.216-3.516-.648a8.33 8.33 0 0 1-2.829-1.862c-.781-.81-1.401-1.768-1.859-2.874-.431-1.133-.647-2.361-.647-3.683 0-1.349.216-2.577.647-3.683.458-1.106 1.091-2.065 1.899-2.874s1.738-1.43 2.788-1.862c1.078-.432 2.249-.648 3.516-.648zm138.585 0c1.266 0 2.438.216 3.516.648s2.007 1.052 2.788 1.862a8.26 8.26 0 0 1 1.859 2.874c.458 1.106.687 2.334.687 3.683s-.229 2.577-.687 3.683c-.431 1.106-1.051 2.065-1.859 2.874a8.33 8.33 0 0 1-2.828 1.862c-1.051.432-2.209.648-3.475.648s-2.438-.216-3.516-.648a8.33 8.33 0 0 1-2.829-1.862c-.781-.81-1.401-1.768-1.859-2.874-.431-1.133-.647-2.361-.647-3.683 0-1.349.216-2.577.647-3.683a8.76 8.76 0 0 1 1.899-2.874 8.43 8.43 0 0 1 2.788-1.862c1.078-.432 2.249-.648 3.516-.648zm-110.852.243h5.334c2.021 0 3.529.432 4.526 1.295s1.495 2.077 1.495 3.643c0 1.538-.498 2.739-1.495 3.602s-2.506 1.295-4.526 1.295h-5.334zm-198.463.486h5.334c2.021 0 3.529.432 4.526 1.295s1.495 2.078 1.495 3.643c0 1.538-.498 2.738-1.495 3.602s-2.506 1.295-4.526 1.295H8.121zm10.371 37.053c-2.66 0-5.11.439-7.349 1.316-2.239.845-4.201 2.063-5.888 3.656-1.655 1.592-2.952 3.461-3.893 5.605-.908 2.145-1.363 4.5-1.363 7.067s.454 4.923 1.363 7.067a17.39 17.39 0 0 0 3.893 5.605c1.655 1.592 3.601 2.827 5.84 3.705 2.271.845 4.72 1.267 7.348 1.267 2.985 0 5.661-.52 8.03-1.56 2.401-1.04 4.412-2.551 6.034-4.533l-5.061-4.679c-1.168 1.365-2.466 2.388-3.893 3.071-1.428.65-2.985.975-4.672.975-1.59 0-3.049-.26-4.38-.78s-2.482-1.267-3.455-2.242a10.55 10.55 0 0 1-2.287-3.461c-.519-1.332-.779-2.811-.779-4.436s.26-3.103.779-4.435c.551-1.332 1.314-2.486 2.287-3.461s2.125-1.722 3.455-2.242 2.79-.78 4.38-.78c1.687 0 3.244.342 4.672 1.024 1.427.65 2.726 1.641 3.893 2.973l5.061-4.679c-1.622-1.982-3.634-3.477-6.034-4.484-2.368-1.04-5.029-1.56-7.981-1.56zm40.888 0c-2.66 0-5.126.439-7.397 1.316s-4.25 2.112-5.937 3.705-3.001 3.461-3.942 5.605c-.908 2.145-1.363 4.484-1.363 7.019s.454 4.874 1.363 7.019c.941 2.145 2.238 4.014 3.893 5.606 1.687 1.592 3.666 2.827 5.937 3.704 2.303.877 4.801 1.316 7.494 1.316 2.66 0 5.11-.439 7.348-1.316 2.271-.877 4.234-2.096 5.888-3.656 1.687-1.592 3.001-3.461 3.942-5.605.941-2.177 1.411-4.533 1.411-7.067 0-2.567-.471-4.906-1.411-7.019-.941-2.145-2.255-4.013-3.942-5.605-1.655-1.592-3.617-2.827-5.888-3.705-2.239-.877-4.704-1.316-7.397-1.316zm286.36 0c-2.725 0-5.223.439-7.494 1.316-2.271.845-4.25 2.063-5.937 3.656a17.04 17.04 0 0 0-3.942 5.605c-.908 2.145-1.363 4.5-1.363 7.067s.454 4.923 1.363 7.067c.941 2.145 2.238 4.013 3.893 5.605 1.687 1.592 3.65 2.827 5.888 3.705 2.271.845 4.753 1.267 7.446 1.267 2.433 0 4.866-.374 7.299-1.121 2.466-.747 4.623-1.819 6.473-3.217v-13.843h-7.203v10.022c-.529.279-1.064.512-1.606.701-1.46.487-2.968.731-4.526.731-1.622 0-3.114-.26-4.477-.78a10.44 10.44 0 0 1-3.504-2.242 11.12 11.12 0 0 1-2.287-3.51c-.519-1.332-.779-2.795-.779-4.387 0-1.625.26-3.103.779-4.435.552-1.332 1.314-2.486 2.287-3.461 1.006-.975 2.19-1.722 3.552-2.242s2.871-.78 4.526-.78c1.719 0 3.31.325 4.769.975 1.46.617 2.806 1.576 4.039 2.876l5.061-4.679c-1.655-1.917-3.698-3.38-6.132-4.387-2.401-1.007-5.11-1.511-8.127-1.511zm-255.982.585v34.119h7.396v-20.037l9.976 16.431h3.552l10.03-16.871.043 20.478h7.397l-.097-34.119h-6.472l-12.546 21.186-12.759-21.186zm52.276 0v34.119h7.883v-9.407h6.862c3.05 0 5.677-.487 7.883-1.462 2.206-1.007 3.91-2.437 5.11-4.289s1.8-4.046 1.8-6.58c0-2.567-.6-4.777-1.8-6.629s-2.904-3.266-5.11-4.241c-2.206-1.007-4.833-1.511-7.883-1.511zm40.482 0v19.107c0 5.004 1.363 8.855 4.088 11.552s6.505 4.046 11.339 4.046 8.614-1.349 11.339-4.046 4.087-6.548 4.087-11.552v-19.107h-7.786v18.814c0 3.249-.665 5.589-1.995 7.019s-3.196 2.145-5.597 2.145-4.266-.715-5.596-2.145-1.995-3.77-1.995-7.019v-18.814zm40.022 0v6.434h10.9v27.685h7.884V414.51h10.9v-6.434zm39.721 0v34.119h7.883v-34.119zm21.764 0v34.119h7.786v-20.709l16.984 20.709h6.472v-34.119h-7.786v20.7l-16.935-20.7zm-224.643 6.141c1.525 0 2.936.26 4.234.78s2.417 1.267 3.358 2.242c.973.975 1.719 2.128 2.238 3.461.552 1.332.828 2.81.828 4.435s-.276 3.103-.828 4.436c-.519 1.332-1.265 2.486-2.238 3.461s-2.109 1.722-3.407 2.242c-1.265.52-2.66.78-4.185.78s-2.936-.26-4.233-.78-2.434-1.267-3.407-2.242c-.941-.975-1.687-2.128-2.238-3.461-.519-1.365-.779-2.844-.779-4.436 0-1.625.26-3.103.779-4.435a10.55 10.55 0 0 1 2.287-3.461c.973-.975 2.093-1.722 3.358-2.242 1.298-.52 2.709-.78 4.233-.78zm90.537.293h6.424c2.433 0 4.25.52 5.45 1.56s1.8 2.502 1.8 4.387c0 1.852-.6 3.298-1.8 4.338s-3.017 1.56-5.45 1.56h-6.424zm-90.144 42.276c-1.985 0-3.626.302-4.92.907-1.273.584-2.222 1.373-2.848 2.367-.604.973-.906 2.043-.906 3.21 0 1.21.248 2.205.744 2.983.496.757 1.144 1.362 1.942 1.816a14.34 14.34 0 0 0 2.687 1.135c.993.281 1.974.529 2.946.745a19.39 19.39 0 0 1 2.654.778c.82.281 1.478.659 1.974 1.134.518.476.777 1.103.777 1.881 0 .67-.194 1.275-.583 1.815-.388.519-.993.93-1.813 1.232s-1.888.454-3.204.454a11.89 11.89 0 0 1-4.176-.746c-1.338-.497-2.439-1.124-3.302-1.88l-1.197 2.529c.906.843 2.147 1.534 3.723 2.075a15.73 15.73 0 0 0 4.952.778c1.985 0 3.625-.292 4.92-.876 1.316-.605 2.287-1.394 2.913-2.366.626-.994.939-2.064.939-3.21 0-1.189-.248-2.161-.744-2.918a5.51 5.51 0 0 0-1.974-1.816 12.06 12.06 0 0 0-2.687-1.102 48.05 48.05 0 0 0-2.913-.746c-.971-.238-1.867-.497-2.687-.778-.798-.281-1.457-.659-1.975-1.135-.496-.476-.744-1.113-.744-1.913 0-.67.183-1.275.55-1.815.388-.54.993-.973 1.813-1.297s1.867-.486 3.14-.486c1.014 0 2.06.151 3.139.454a10.09 10.09 0 0 1 3.075 1.394l1.068-2.594c-.949-.648-2.071-1.146-3.366-1.491s-2.6-.519-3.917-.519zm106.704 0c-1.726 0-3.323.291-4.791.875-1.446.562-2.708 1.373-3.787 2.432a11.12 11.12 0 0 0-2.525 3.663c-.604 1.405-.907 2.95-.907 4.636s.303 3.231.907 4.636 1.435 2.637 2.492 3.696c1.079 1.038 2.341 1.848 3.787 2.431 1.467.562 3.065.843 4.791.843 1.77 0 3.388-.303 4.855-.908 1.489-.605 2.752-1.492 3.787-2.659l-2.104-2.042c-.863.929-1.835 1.621-2.914 2.075-1.079.432-2.233.649-3.463.649-1.273 0-2.46-.216-3.561-.649-1.079-.432-2.017-1.037-2.816-1.815s-1.424-1.696-1.877-2.755c-.432-1.081-.647-2.248-.647-3.502s.216-2.41.647-3.469c.453-1.081 1.079-2.01 1.877-2.788s1.737-1.383 2.816-1.816c1.101-.432 2.287-.648 3.561-.648 1.23 0 2.384.227 3.463.681 1.079.432 2.05 1.102 2.914 2.01l2.104-2.042c-1.036-1.167-2.298-2.043-3.787-2.626-1.467-.605-3.075-.907-4.823-.907zm69.532 0c-1.769 0-3.388.291-4.855.875a11.34 11.34 0 0 0-3.852 2.432 11.12 11.12 0 0 0-2.525 3.663c-.604 1.405-.906 2.95-.906 4.636s.302 3.231.906 4.636 1.446 2.637 2.525 3.696c1.079 1.038 2.352 1.848 3.82 2.431 1.467.562 3.075.843 4.823.843 1.597 0 3.14-.238 4.629-.714 1.511-.497 2.827-1.221 3.949-2.172v-8.851h-3.107v7.386c-.587.387-1.202.691-1.845.914-1.101.367-2.255.551-3.463.551-1.295 0-2.492-.216-3.593-.649s-2.061-1.037-2.881-1.815c-.798-.8-1.425-1.729-1.878-2.788-.432-1.081-.647-2.237-.647-3.469 0-1.254.215-2.41.647-3.469.453-1.081 1.079-2.01 1.878-2.788.82-.778 1.78-1.383 2.881-1.816 1.122-.432 2.331-.648 3.625-.648 1.273 0 2.449.216 3.528.648 1.101.411 2.115 1.07 3.043 1.977l2.007-2.01c-1.036-1.167-2.298-2.043-3.787-2.626s-3.129-.875-4.92-.875zm55.796 0c-1.748 0-3.356.291-4.823.875a11.4 11.4 0 0 0-3.819 2.464 11.12 11.12 0 0 0-2.525 3.663c-.604 1.405-.907 2.94-.907 4.604s.303 3.199.907 4.604 1.446 2.637 2.525 3.696a11.66 11.66 0 0 0 3.819 2.431c1.489.584 3.097.876 4.823.876s3.312-.281 4.758-.843c1.467-.584 2.741-1.394 3.82-2.431a10.84 10.84 0 0 0 2.525-3.696c.604-1.405.906-2.95.906-4.636s-.302-3.231-.906-4.636a10.51 10.51 0 0 0-2.525-3.663 11 11 0 0 0-3.82-2.432c-1.446-.584-3.032-.875-4.758-.875zm-291.744.259v22.695h3.237v-6.906h5.6c.498 0 .978-.02 1.439-.059l4.873 6.965h3.528l-5.375-7.598a9.08 9.08 0 0 0 .617-.248c1.403-.627 2.482-1.524 3.237-2.691.755-1.189 1.133-2.605 1.133-4.247s-.378-3.059-1.133-4.247-1.834-2.096-3.237-2.723-3.097-.94-5.082-.94zm27.202 0v22.695h16.443v-2.821H30.501v-7.327h11.361v-2.756H30.501v-6.97h12.753v-2.821zm49.128 0v22.695h16.443v-2.821H79.628v-7.327H90.99v-2.756H79.628v-6.97h12.753v-2.821zm32.187 0L98.317 479.74h3.334l2.489-5.674h12.048l2.489 5.674h3.399l-10.293-22.695zm20.534 0v22.695h3.237v-6.906h5.6c.498 0 .978-.02 1.439-.059l4.873 6.965h3.528l-5.375-7.598c.212-.077.417-.159.617-.248 1.403-.627 2.482-1.524 3.237-2.691.755-1.189 1.133-2.605 1.133-4.247s-.377-3.059-1.133-4.247-1.834-2.096-3.237-2.723-3.097-.94-5.082-.94zm54.274 0v22.695h3.237v-10.116h13.012v10.116h3.237v-22.695h-3.237v9.759h-13.012v-9.759zm70.989 0v22.695h3.237v-6.906h5.6a17.01 17.01 0 0 0 1.439-.059l4.873 6.965h3.528l-5.375-7.598a9.07 9.07 0 0 0 .617-.248c1.403-.627 2.482-1.524 3.237-2.691.755-1.189 1.133-2.605 1.133-4.247s-.377-3.059-1.133-4.247-1.834-2.096-3.237-2.723-3.097-.94-5.082-.94zm57.867 0v12.903c0 3.285.852 5.782 2.557 7.489s4.046 2.561 7.024 2.561c2.999 0 5.341-.854 7.024-2.561 1.705-1.708 2.557-4.204 2.557-7.489v-12.903h-3.14v12.774c0 2.529-.561 4.377-1.683 5.544-1.101 1.167-2.676 1.751-4.726 1.751-2.028 0-3.604-.583-4.726-1.751-1.101-1.167-1.65-3.015-1.65-5.544v-12.774zm29.468 0v22.695h3.237v-6.874h5.6c1.985 0 3.679-.313 5.082-.94 1.403-.648 2.482-1.556 3.237-2.724.755-1.189 1.133-2.605 1.133-4.247s-.378-3.059-1.133-4.247-1.834-2.096-3.237-2.723-3.097-.94-5.082-.94zm-49.905 2.626c1.252 0 2.406.216 3.463.648 1.079.432 2.007 1.048 2.783 1.848.798.778 1.414 1.697 1.845 2.756.453 1.059.679 2.215.679 3.469s-.226 2.41-.679 3.469c-.432 1.059-1.047 1.989-1.845 2.788a8.18 8.18 0 0 1-2.783 1.815c-1.057.432-2.212.649-3.463.649-1.273 0-2.449-.216-3.528-.649a8.62 8.62 0 0 1-2.784-1.815c-.798-.8-1.424-1.729-1.877-2.788-.432-1.059-.648-2.215-.648-3.469s.216-2.41.648-3.469c.453-1.059 1.079-1.978 1.877-2.756.798-.8 1.727-1.416 2.784-1.848 1.079-.432 2.255-.648 3.528-.648zm-288.508.194h5.503c2.072 0 3.636.443 4.694 1.329 1.079.886 1.619 2.14 1.619 3.761s-.539 2.886-1.619 3.793c-1.057.886-2.622 1.329-4.694 1.329H3.298zm129.051 0h5.503c2.072 0 3.636.443 4.694 1.329 1.079.886 1.619 2.14 1.619 3.761s-.54 2.886-1.619 3.793c-1.057.886-2.622 1.329-4.694 1.329h-5.503zm125.263 0h5.503c2.072 0 3.636.443 4.694 1.329 1.079.886 1.619 2.14 1.619 3.761s-.54 2.886-1.619 3.793c-1.057.886-2.622 1.329-4.694 1.329h-5.503zm87.335 0h5.503c2.072 0 3.636.443 4.693 1.329 1.079.886 1.619 2.14 1.619 3.761s-.54 2.874-1.619 3.761c-1.057.886-2.621 1.329-4.693 1.329h-5.503zm-234.783.471l4.886 11.136h-9.772zM180 0c-5.898 0-10.68 4.782-10.68 10.68-.004 3.85 2.07 7.403 5.424 9.296l5.26 26.24L185.224 20c3.374-1.889 5.462-5.454 5.456-9.32C190.68 4.782 185.898 0 180 0m-69.756 17.492a10.67 10.67 0 0 0-5.388 1.244c-5.208 2.769-7.185 9.236-4.416 14.444a10.67 10.67 0 0 0 9.152 5.664l16.964 20.7-7.7-25.6a10.66 10.66 0 0 0 .448-10.788 10.67 10.67 0 0 0-9.056-5.66zm139.512 0a10.67 10.67 0 0 0-9.056 5.66 10.66 10.66 0 0 0 .448 10.788l-7.7 25.596 16.964-20.7a10.67 10.67 0 0 0 9.152-5.664c2.767-5.207.79-11.671-4.416-14.44a10.67 10.67 0 0 0-5.388-1.244zM180 56.94c-37.566 0-72.159 20.428-90.296 53.32L20 120.924l76.24.004c15.193-32.531 47.853-53.322 83.762-53.322s68.569 20.791 83.762 53.322H340l-69.7-10.668c-18.137-32.893-52.732-53.32-90.3-53.32M55.504 65.856a10.67 10.67 0 0 0-8.204 4.688c-3.296 4.89-2.005 11.526 2.884 14.824a10.67 10.67 0 0 0 10.74.704L85.62 96.388 66.8 77.4c.323-3.852-1.465-7.577-4.672-9.736a10.67 10.67 0 0 0-6.624-1.804zm248.988 0a10.67 10.67 0 0 0-6.624 1.804c-3.207 2.159-4.995 5.884-4.672 9.736l-18.82 18.988 24.696-10.316a10.67 10.67 0 0 0 10.74-.704c4.889-3.298 6.18-9.934 2.884-14.824a10.67 10.67 0 0 0-8.204-4.688zM180 88.932c-35.837 0-66.074 26.664-70.552 62.212H68.136a24.88 24.88 0 0 0-23.248-15.996c-13.746-.004-24.89 11.138-24.888 24.884-.004 13.746 11.142 24.888 24.888 24.884a24.88 24.88 0 0 0 23.248-16h41.312c4.478 35.548 34.715 62.211 70.552 62.212s66.074-26.664 70.552-62.212h41.312a24.88 24.88 0 0 0 23.248 15.996c13.746.004 24.89-11.138 24.888-24.884.004-13.746-11.142-24.888-24.888-24.884a24.88 24.88 0 0 0-23.248 15.996h-41.312c-4.48-35.547-34.716-62.207-70.552-62.208m0 17.776c29.454 0 53.332 23.874 53.332 53.324s-23.879 53.32-53.332 53.32-53.33-23.872-53.332-53.32 23.878-53.324 53.332-53.324m0 21.328c-17.673 0-32 14.323-32 31.992s14.327 31.992 32 31.992 31.998-14.321 32-31.988-14.325-31.996-32-31.996m135.112 15.404c9.162.004 16.588 7.43 16.592 16.592-.004 9.162-7.43 16.588-16.592 16.592-9.162-.004-16.588-7.43-16.592-16.592.004-9.162 7.43-16.588 16.592-16.592m0 8.292a8.3 8.3 0 0 0-8.296 8.296 8.3 8.3 0 0 0 8.296 8.292 8.3 8.3 0 0 0 8.296-8.292 8.3 8.3 0 0 0-8.296-8.292zM20 199.132L89.7 209.8a103.12 103.12 0 0 0 180.6-.004l69.684-10.66H263.76c-15.193 32.531-47.853 53.322-83.762 53.322s-68.569-20.791-83.762-53.322zm36.812 33.692a10.67 10.67 0 0 0-6.624 1.804c-4.889 3.298-6.18 9.934-2.884 14.824s9.937 6.183 14.828 2.884 6.18-9.934 2.884-14.824a10.67 10.67 0 0 0-8.204-4.688m246.38 0a10.67 10.67 0 0 0-8.204 4.688c-3.296 4.89-2.005 11.526 2.884 14.824s11.53 2.008 14.828-2.884 2.005-11.526-2.884-14.824a10.67 10.67 0 0 0-6.624-1.804m-193.696 48.344a10.67 10.67 0 0 0-9.06 5.66c-2.769 5.208-.792 11.675 4.416 14.444s11.679.794 14.448-4.416.792-11.675-4.416-14.444a10.67 10.67 0 0 0-5.388-1.244m141.004 0a10.67 10.67 0 0 0-5.388 1.244c-5.208 2.769-7.185 9.236-4.416 14.444s9.239 7.188 14.448 4.416 7.185-9.236 4.416-14.444a10.67 10.67 0 0 0-9.056-5.66zM180 298.644c-5.897 0-10.678 4.779-10.68 10.676S174.101 320 180 320s10.68-4.782 10.68-10.68-4.783-10.676-10.68-10.676"/></svg>
