<svg xmlns="http://www.w3.org/2000/svg" width="1140" height="160"><path fill="#e3e2db" d="M860.607 80.61l-6.576 5.951h3.361l7.775-5.951zm-653.184 8.398c-2.56 0-4.927.433-7.103 1.297-2.144.832-4.017 2.017-5.617 3.553s-2.848 3.344-3.744 5.424c-.864 2.08-1.295 4.35-1.295 6.814s.431 4.736 1.295 6.816c.896 2.08 2.129 3.888 3.697 5.424 1.6 1.536 3.471 2.738 5.615 3.602 2.176.832 4.543 1.246 7.103 1.246 2.336 0 4.577-.351 6.721-1.055 2.144-.736 4.015-1.809 5.615-3.217v-12.816h-3.406v11.301c-1.052.774-2.173 1.36-3.361 1.756-1.696.576-3.504.863-5.424.863-2.048 0-3.951-.336-5.711-1.008-1.728-.704-3.249-1.68-4.561-2.928-1.28-1.28-2.287-2.767-3.023-4.463-.704-1.696-1.057-3.537-1.057-5.521 0-2.016.353-3.856 1.057-5.52.736-1.696 1.743-3.168 3.023-4.416 1.312-1.28 2.833-2.256 4.561-2.928 1.76-.704 3.68-1.057 5.76-1.057 1.952 0 3.775.304 5.471.912s3.248 1.617 4.656 3.025l2.209-2.256c-1.504-1.632-3.329-2.848-5.473-3.648-2.112-.8-4.448-1.201-7.008-1.201zm156.191 0c-2.56 0-4.911.433-7.055 1.297-2.144.832-4.017 2.032-5.617 3.6-1.568 1.536-2.799 3.344-3.695 5.424-.864 2.048-1.297 4.304-1.297 6.768s.433 4.736 1.297 6.816c.896 2.048 2.127 3.856 3.695 5.424 1.6 1.536 3.473 2.738 5.617 3.602 2.176.832 4.527 1.246 7.055 1.246s4.864-.414 7.008-1.246c2.144-.864 4-2.066 5.568-3.602 1.6-1.536 2.833-3.344 3.697-5.424.896-2.08 1.344-4.352 1.344-6.816s-.448-4.734-1.344-6.814c-.864-2.08-2.097-3.888-3.697-5.424-1.568-1.536-3.424-2.721-5.568-3.553-2.144-.864-4.48-1.297-7.008-1.297zm277.176 0c-2.848 0-5.184.433-7.008 1.297-1.824.832-3.184 1.951-4.08 3.359-.864 1.376-1.295 2.897-1.295 4.561 0 1.792.368 3.247 1.104 4.367.768 1.088 1.761 1.969 2.977 2.641 1.248.672 2.608 1.217 4.08 1.633l4.416 1.104c1.472.352 2.815.768 4.031 1.248 1.216.448 2.192 1.071 2.928 1.871.768.8 1.152 1.856 1.152 3.168 0 1.088-.319 2.081-.959 2.977-.608.896-1.586 1.616-2.93 2.16-1.312.512-3.023.768-5.135.768-2.208 0-4.32-.384-6.336-1.152-1.984-.8-3.568-1.776-4.752-2.928l-1.393 2.736c1.248 1.28 3.007 2.336 5.279 3.168a21.8 21.8 0 0 0 7.201 1.199c2.88 0 5.233-.414 7.057-1.246 1.856-.864 3.231-1.985 4.127-3.361.896-1.408 1.344-2.929 1.344-4.561 0-1.76-.384-3.183-1.152-4.271-.736-1.088-1.727-1.952-2.975-2.592-1.216-.672-2.561-1.215-4.033-1.631l-4.367-1.152a38.8 38.8 0 0 1-4.08-1.201c-1.216-.448-2.209-1.071-2.977-1.871-.736-.8-1.104-1.856-1.104-3.168 0-1.152.304-2.176.912-3.072.64-.928 1.616-1.665 2.928-2.209s2.976-.814 4.992-.814c1.504 0 3.056.224 4.656.672a15.8 15.8 0 0 1 4.607 2.111l1.199-2.832c-1.344-.928-2.943-1.648-4.799-2.16a19.88 19.88 0 0 0-5.617-.816zm84.889 0c-2.56 0-4.928.433-7.103 1.297-2.144.832-4.017 2.017-5.617 3.553s-2.846 3.344-3.742 5.424c-.864 2.08-1.297 4.35-1.297 6.814s.433 4.736 1.297 6.816c.896 2.08 2.127 3.888 3.695 5.424 1.6 1.536 3.471 2.738 5.615 3.602 2.176.832 4.545 1.246 7.105 1.246 2.336 0 4.575-.351 6.719-1.055 2.144-.736 4.017-1.809 5.617-3.217v-12.816h-3.408v11.301c-1.052.774-2.173 1.36-3.361 1.756-1.696.576-3.504.863-5.424.863-2.048 0-3.951-.336-5.711-1.008-1.728-.704-3.249-1.68-4.561-2.928-1.28-1.28-2.287-2.767-3.023-4.463-.704-1.696-1.057-3.537-1.057-5.521 0-2.016.353-3.856 1.057-5.52.736-1.696 1.743-3.168 3.023-4.416 1.312-1.28 2.833-2.256 4.561-2.928 1.76-.704 3.68-1.057 5.76-1.057 1.952 0 3.775.304 5.471.912s3.248 1.617 4.656 3.025l2.209-2.256c-1.504-1.632-3.329-2.848-5.473-3.648-2.112-.8-4.448-1.201-7.008-1.201zm76.897 0c-2.528 0-4.864.433-7.008 1.297-2.144.832-4.017 2.017-5.617 3.553-1.568 1.536-2.799 3.344-3.695 5.424-.864 2.08-1.297 4.35-1.297 6.814s.433 4.736 1.297 6.816c.896 2.08 2.127 3.888 3.695 5.424s3.424 2.738 5.568 3.602c2.144.832 4.48 1.246 7.008 1.246 2.464 0 4.768-.414 6.912-1.246s3.952-2.065 5.424-3.697l-2.256-2.256c-1.376 1.408-2.895 2.432-4.559 3.072s-3.457.959-5.377.959c-2.016 0-3.887-.336-5.615-1.008a13.9 13.9 0 0 1-4.512-2.928 14.47 14.47 0 0 1-3.025-4.416c-.704-1.696-1.055-3.552-1.055-5.568s.351-3.856 1.055-5.52c.736-1.696 1.745-3.168 3.025-4.416a12.93 12.93 0 0 1 4.512-2.928c1.728-.704 3.599-1.057 5.615-1.057 1.92 0 3.713.321 5.377.961 1.664.608 3.183 1.615 4.559 3.023l2.256-2.256c-1.472-1.632-3.28-2.848-5.424-3.648-2.144-.832-4.431-1.248-6.863-1.248zm54.576 0c-2.56 0-4.913.433-7.057 1.297-2.144.832-4.015 2.032-5.615 3.6-1.568 1.536-2.801 3.344-3.697 5.424-.864 2.048-1.295 4.304-1.295 6.768s.431 4.736 1.295 6.816a17.55 17.55 0 0 0 3.697 5.424c1.6 1.536 3.471 2.738 5.615 3.602 2.176.832 4.529 1.246 7.057 1.246s4.864-.414 7.008-1.246c2.144-.864 4-2.066 5.568-3.602a15.87 15.87 0 0 0 3.695-5.424c.896-2.08 1.344-4.352 1.344-6.816s-.448-4.734-1.344-6.814a15.87 15.87 0 0 0-3.695-5.424c-1.568-1.536-3.424-2.721-5.568-3.553-2.144-.864-4.48-1.297-7.008-1.297zm-624.408.289v33.6h3.551v-10.656h9.025a23.64 23.64 0 0 0 2.711-.148l7.656 10.805h3.889l-8.203-11.512 1.291-.488c2.048-.928 3.615-2.24 4.703-3.936 1.12-1.728 1.682-3.777 1.682-6.145 0-3.616-1.233-6.431-3.697-8.447-2.432-2.048-5.775-3.072-10.031-3.072zm37.416 0v19.248c0 4.832 1.231 8.479 3.695 10.943s5.841 3.695 10.129 3.695 7.648-1.231 10.08-3.695c2.464-2.464 3.695-6.111 3.695-10.943V89.298h-3.455v19.104c0 3.968-.897 6.895-2.689 8.783s-4.335 2.832-7.631 2.832c-3.264 0-5.792-.944-7.584-2.832s-2.689-4.815-2.689-8.783V89.298zm41.305 0v33.6h3.551V112.29h9.023c2.848 0 5.298-.465 7.346-1.393s3.615-2.24 4.703-3.936c1.12-1.728 1.68-3.777 1.68-6.145 0-2.432-.56-4.495-1.68-6.191-1.088-1.728-2.655-3.04-4.703-3.936-2.048-.928-4.498-1.393-7.346-1.393zm96.31 0v33.6h13.68c3.584 0 6.72-.703 9.408-2.111 2.72-1.44 4.832-3.425 6.336-5.953s2.256-5.44 2.256-8.736-.752-6.206-2.256-8.734-3.616-4.496-6.336-5.904c-2.688-1.44-5.824-2.16-9.408-2.16zm42.648 0v33.6h23.76v-3.072h-20.207v-12.48h17.375v-3.023h-17.375V92.37h19.488v-3.072zm50.688 0v33.6h3.553v-33.6zm17.496 0v33.6h3.553V95.653l21.6 27.244h2.928v-33.6h-3.504v27.248l-21.648-27.248zm35.977 0l14.881 33.6h3.504l14.879-33.6h-3.6l-12.957 29.24-12.867-29.24zm41.111 0v33.6h23.76v-3.072h-20.207v-12.48h17.375v-3.023h-17.375V92.37h19.488v-3.072zm61.873 0v3.072h11.807v30.527h3.553V92.37h11.809v-3.072zm35.832 0v33.6h3.551v-33.6zm67.584 0l-15.361 33.6h3.697l4.018-8.977h18.748l4.018 8.977h3.744l-15.359-33.6zm63.984 0v33.6h3.551v-33.6zm60.768 0v33.6h3.551V95.65l21.602 27.248h2.928v-33.6h-3.504v27.252l-21.648-27.252zm-522.121 2.879c2.016 0 3.872.353 5.568 1.057 1.728.672 3.217 1.648 4.465 2.928 1.28 1.248 2.271 2.72 2.975 4.416.704 1.664 1.057 3.504 1.057 5.52s-.353 3.872-1.057 5.568a13.78 13.78 0 0 1-2.975 4.416c-1.248 1.248-2.737 2.224-4.465 2.928-1.696.672-3.552 1.008-5.568 1.008s-3.887-.336-5.615-1.008c-1.728-.704-3.232-1.68-4.512-2.928-1.248-1.28-2.241-2.767-2.977-4.463-.704-1.696-1.057-3.537-1.057-5.521 0-2.016.353-3.856 1.057-5.52a14.13 14.13 0 0 1 2.977-4.416A12.93 12.93 0 0 1 358 93.234c1.728-.704 3.599-1.057 5.615-1.057zm493.537 0c2.016 0 3.872.353 5.568 1.057 1.728.672 3.215 1.648 4.463 2.928a13.12 13.12 0 0 1 2.977 4.416c.704 1.664 1.057 3.504 1.057 5.52s-.353 3.872-1.057 5.568c-.704 1.664-1.697 3.136-2.977 4.416-1.248 1.248-2.735 2.224-4.463 2.928-1.696.672-3.552 1.008-5.568 1.008s-3.889-.336-5.617-1.008a13.9 13.9 0 0 1-4.512-2.928c-1.248-1.28-2.239-2.767-2.975-4.463-.704-1.696-1.057-3.537-1.057-5.521 0-2.016.353-3.856 1.057-5.52.736-1.696 1.727-3.168 2.975-4.416a12.93 12.93 0 0 1 4.512-2.928c1.728-.704 3.601-1.057 5.617-1.057zm-620.857.193h8.93c3.36 0 5.903.735 7.631 2.207 1.76 1.472 2.641 3.552 2.641 6.24 0 2.656-.881 4.719-2.641 6.191-1.728 1.472-4.271 2.209-7.631 2.209h-8.93zm78.721 0h8.928c3.36 0 5.905.735 7.633 2.207 1.76 1.472 2.641 3.552 2.641 6.24 0 2.656-.881 4.719-2.641 6.191-1.728 1.44-4.273 2.16-7.633 2.16h-8.928zm96.312 0h9.936c2.976 0 5.553.591 7.729 1.775 2.208 1.152 3.919 2.753 5.135 4.801s1.824 4.43 1.824 7.15c0 2.688-.608 5.072-1.824 7.152-1.216 2.048-2.927 3.664-5.135 4.848-2.176 1.152-4.753 1.729-7.729 1.729h-9.936zm351.385.602l8.086 18.07h-16.174zm-314.139-66.01l-7.201 7.68h6.508l9.652-7.68zm631.439 0l-7.199 7.68h6.506l9.654-7.68zm-782.801 10.08c-2.916 0-5.617.481-8.105 1.441s-4.659 2.311-6.508 4.053a18.64 18.64 0 0 0-4.32 6.133c-.996 2.347-1.492 4.906-1.492 7.68s.497 5.333 1.492 7.68c1.031 2.347 2.454 4.393 4.268 6.135 1.849 1.742 4.017 3.093 6.506 4.053 2.524.96 5.262 1.439 8.213 1.439 2.916 0 5.601-.479 8.055-1.439 2.489-.96 4.64-2.293 6.453-4 1.849-1.742 3.289-3.786 4.32-6.133 1.031-2.382 1.547-4.961 1.547-7.734 0-2.809-.516-5.369-1.547-7.68-1.031-2.347-2.471-4.391-4.32-6.133-1.813-1.742-3.964-3.093-6.453-4.053-2.453-.96-5.156-1.441-8.107-1.441zm41.641 0c-3.52 0-6.454.533-8.801 1.6-2.311 1.031-4.053 2.437-5.227 4.215-1.138 1.742-1.707 3.679-1.707 5.813 0 1.991.392 3.626 1.174 4.906.818 1.28 1.866 2.312 3.146 3.094s2.684 1.422 4.213 1.92c1.564.498 3.112.926 4.641 1.281 1.564.32 2.988.675 4.268 1.066 1.28.356 2.31.835 3.092 1.439.782.569 1.174 1.35 1.174 2.346a3.18 3.18 0 0 1-.746 2.08c-.498.604-1.281 1.086-2.348 1.441-1.031.32-2.399.479-4.106.479-2.24 0-4.462-.355-6.666-1.066-2.169-.747-4.054-1.688-5.654-2.826l-2.934 6.506c1.671 1.28 3.875 2.331 6.613 3.148 2.738.782 5.601 1.172 8.588 1.172 3.556 0 6.488-.533 8.799-1.6 2.347-1.067 4.106-2.471 5.279-4.213a10.09 10.09 0 0 0 1.762-5.76c0-1.956-.409-3.574-1.227-4.854-.782-1.28-1.814-2.312-3.094-3.094s-2.703-1.405-4.268-1.867a68.41 68.41 0 0 0-4.639-1.227c-1.529-.356-2.935-.711-4.215-1.066s-2.31-.818-3.092-1.387c-.782-.604-1.174-1.386-1.174-2.346 0-.818.231-1.53.693-2.135.462-.64 1.226-1.156 2.293-1.547s2.436-.586 4.107-.586 3.377.248 5.119.746c1.742.462 3.484 1.192 5.227 2.188l2.666-6.561c-1.742-1.102-3.75-1.92-6.025-2.453a28.48 28.48 0 0 0-6.934-.854zm39.721 0c-2.916 0-5.619.481-8.107 1.441s-4.657 2.311-6.506 4.053a18.64 18.64 0 0 0-4.32 6.133c-.996 2.347-1.494 4.906-1.494 7.68s.499 5.333 1.494 7.68c1.031 2.347 2.452 4.393 4.266 6.135 1.849 1.742 4.019 3.093 6.508 4.053 2.524.96 5.262 1.439 8.213 1.439 2.916 0 5.599-.479 8.053-1.439 2.489-.96 4.64-2.293 6.453-4 1.849-1.742 3.289-3.786 4.32-6.133 1.031-2.382 1.547-4.961 1.547-7.734 0-2.809-.516-5.369-1.547-7.68-1.031-2.347-2.471-4.391-4.32-6.133-1.813-1.742-3.964-3.093-6.453-4.053-2.453-.96-5.154-1.441-8.105-1.441zm348.439 0c-2.916 0-5.599.481-8.053 1.441-2.453.924-4.604 2.258-6.453 4a19.03 19.03 0 0 0-4.268 6.133c-.996 2.347-1.494 4.924-1.494 7.732s.499 5.388 1.494 7.734a19.03 19.03 0 0 0 4.268 6.133c1.813 1.742 3.945 3.093 6.398 4.053 2.489.924 5.175 1.387 8.055 1.387 3.271 0 6.203-.569 8.799-1.707 2.631-1.138 4.836-2.79 6.613-4.959l-5.547-5.119c-1.28 1.493-2.701 2.613-4.266 3.359-1.564.711-3.272 1.066-5.121 1.066-1.742 0-3.341-.285-4.799-.854s-2.72-1.386-3.787-2.453-1.901-2.329-2.506-3.787c-.569-1.458-.854-3.076-.854-4.854s.285-3.396.854-4.854c.604-1.458 1.439-2.718 2.506-3.785s2.329-1.886 3.787-2.455 3.057-.852 4.799-.852c1.849 0 3.557.372 5.121 1.119 1.564.711 2.986 1.796 4.266 3.254l5.547-5.121c-1.778-2.169-3.982-3.804-6.613-4.906-2.596-1.138-5.51-1.707-8.746-1.707zm38.279 0c-2.916 0-5.617.481-8.105 1.441s-4.659 2.311-6.508 4.053a18.64 18.64 0 0 0-4.32 6.133c-.996 2.347-1.492 4.906-1.492 7.68s.497 5.333 1.492 7.68c1.031 2.347 2.454 4.393 4.268 6.135 1.849 1.742 4.017 3.093 6.506 4.053 2.524.96 5.264 1.439 8.215 1.439 2.916 0 5.599-.479 8.053-1.439 2.489-.96 4.64-2.293 6.453-4a18.64 18.64 0 0 0 4.32-6.133c1.031-2.382 1.547-4.961 1.547-7.734 0-2.809-.516-5.369-1.547-7.68a18.64 18.64 0 0 0-4.32-6.133c-1.813-1.742-3.964-3.093-6.453-4.053-2.453-.96-5.156-1.441-8.107-1.441zm253.787 0c-2.916 0-5.599.481-8.053 1.441-2.453.924-4.604 2.258-6.453 4a19.03 19.03 0 0 0-4.268 6.133c-.996 2.347-1.492 4.924-1.492 7.732s.497 5.388 1.492 7.734a19.03 19.03 0 0 0 4.268 6.133c1.813 1.742 3.947 3.093 6.4 4.053 2.489.924 5.173 1.387 8.053 1.387 3.271 0 6.203-.569 8.799-1.707 2.631-1.138 4.835-2.79 6.613-4.959l-5.545-5.119c-1.28 1.493-2.703 2.613-4.268 3.359-1.564.711-3.27 1.066-5.119 1.066-1.742 0-3.343-.285-4.801-.854s-2.72-1.386-3.787-2.453-1.901-2.329-2.506-3.787c-.569-1.458-.853-3.076-.853-4.854s.285-3.396.853-4.854c.604-1.458 1.439-2.718 2.506-3.785s2.329-1.886 3.787-2.455 3.059-.852 4.801-.852c1.849 0 3.555.372 5.119 1.119 1.564.711 2.988 1.796 4.268 3.254l5.545-5.121c-1.778-2.169-3.982-3.804-6.613-4.906-2.596-1.138-5.511-1.707-8.746-1.707zm58.588 0c-2.916 0-5.619.481-8.107 1.441s-4.657 2.311-6.506 4.053a18.64 18.64 0 0 0-4.32 6.133c-.996 2.347-1.494 4.906-1.494 7.68s.499 5.333 1.494 7.68c1.031 2.347 2.452 4.393 4.266 6.135 1.849 1.742 4.019 3.093 6.508 4.053 2.524.96 5.262 1.439 8.213 1.439 2.916 0 5.599-.479 8.053-1.439 2.489-.96 4.64-2.293 6.453-4a18.64 18.64 0 0 0 4.32-6.133c1.031-2.382 1.547-4.961 1.547-7.734 0-2.809-.516-5.369-1.547-7.68a18.64 18.64 0 0 0-4.32-6.133c-1.813-1.742-3.964-3.093-6.453-4.053-2.453-.96-5.154-1.441-8.105-1.441zm-885.162.641v37.334h8.641V61.415h17.279v-6.932h-17.279v-9.867h19.574v-6.934zm35.24 0v37.334h8.641V37.683zm18.654 0v37.334h27.359v-7.041h-18.721V37.683zm160.266 0v37.334h8.641V61.415h17.279v-6.932h-17.279v-9.867h19.574v-6.934zm35.24 0v37.334h8.641V37.683zm30.387 0l-16.639 37.334h8.852l3.326-8h17.307l3.314 8h9.066l-16.693-37.334zm46.533 0v37.334h16.961c4.053 0 7.625-.766 10.719-2.295 3.093-1.564 5.512-3.733 7.254-6.506 1.742-2.809 2.613-6.098 2.613-9.867 0-3.804-.871-7.092-2.613-9.865s-4.161-4.926-7.254-6.455c-3.093-1.564-6.665-2.346-10.719-2.346zm45.215 0v37.334h28.906v-6.934h-20.32v-8.641h17.334v-6.721h-17.334v-8.105h19.627v-6.934zm53.199 0v37.334H644.6v-7.041h-18.719V37.683zm45.32 0L645.92 75.017h8.854l3.326-8h17.307l3.314 8h9.066l-16.693-37.334zm130.826 0v37.334h8.107V53.093l10.934 17.977h3.893l10.992-18.461.046 22.408h8.107l-.107-37.334h-7.092l-13.75 23.18-13.984-23.18zm52.094 0v37.334h8.641V64.722h7.519c3.342 0 6.223-.533 8.641-1.6 2.418-1.102 4.284-2.667 5.6-4.693s1.973-4.426 1.973-7.199c0-2.809-.657-5.227-1.973-7.254s-3.182-3.574-5.6-4.641c-2.418-1.102-5.298-1.652-8.641-1.652zm39.186 0v20.906c0 5.476 1.494 9.69 4.481 12.641s7.13 4.426 12.428 4.426 9.439-1.475 12.426-4.426 4.481-7.165 4.481-12.641V37.683h-8.533v20.586c0 3.556-.73 6.115-2.187 7.68s-3.502 2.348-6.133 2.348-4.675-.783-6.133-2.348-2.188-4.124-2.188-7.68V37.683zm38.547 0v7.039h11.947v30.295h8.641V44.722h11.945v-7.039zm48.201 0l-16.641 37.334h8.854l3.326-8h17.307l3.314 8h9.066l-16.693-37.334zm69.52 0v37.334h8.641V37.683zm64.826 0v37.334h8.533V52.355l18.613 22.662H1140V37.683h-8.533v22.648l-18.561-22.648zm-808.547 6.721c1.671 0 3.218.283 4.641.852s2.649 1.388 3.68 2.455c1.067 1.067 1.884 2.327 2.453 3.785.604 1.458.906 3.076.906 4.854s-.302 3.396-.906 4.854c-.569 1.458-1.387 2.72-2.453 3.787s-2.31 1.884-3.732 2.453c-1.387.569-2.917.854-4.588.854s-3.216-.285-4.639-.854a11 11 0 0 1-3.734-2.453c-1.031-1.067-1.849-2.329-2.453-3.787-.569-1.493-.854-3.111-.854-4.854 0-1.778.285-3.396.854-4.854.604-1.458 1.439-2.718 2.506-3.785s2.295-1.886 3.682-2.455c1.422-.569 2.968-.852 4.639-.852zm81.361 0c1.671 0 3.216.283 4.639.852s2.649 1.388 3.68 2.455c1.067 1.067 1.886 2.327 2.455 3.785.604 1.458.906 3.076.906 4.854s-.302 3.396-.906 4.854c-.569 1.458-1.388 2.72-2.455 3.787s-2.31 1.884-3.732 2.453c-1.387.569-2.915.854-4.586.854s-3.218-.285-4.641-.854a11 11 0 0 1-3.734-2.453c-1.031-1.067-1.849-2.329-2.453-3.787-.569-1.493-.854-3.111-.854-4.854 0-1.778.285-3.396.854-4.854.604-1.458 1.441-2.718 2.508-3.785s2.293-1.886 3.68-2.455c1.422-.569 2.969-.852 4.641-.852zm386.719 0c1.671 0 3.218.283 4.641.852s2.649 1.388 3.68 2.455c1.067 1.067 1.884 2.327 2.453 3.785.604 1.458.908 3.076.908 4.854s-.304 3.396-.908 4.854c-.569 1.458-1.386 2.72-2.453 3.787s-2.31 1.884-3.732 2.453c-1.387.569-2.917.854-4.588.854s-3.217-.285-4.639-.854a11 11 0 0 1-3.734-2.453c-1.031-1.067-1.849-2.329-2.453-3.787-.569-1.493-.854-3.111-.854-4.854 0-1.778.285-3.396.854-4.854.604-1.458 1.441-2.718 2.508-3.785s2.293-1.886 3.68-2.455c1.422-.569 2.968-.852 4.639-.852zm312.375 0c1.671 0 3.216.283 4.639.852a10.45 10.45 0 0 1 3.68 2.455c1.067 1.067 1.886 2.327 2.455 3.785.604 1.458.906 3.076.906 4.854s-.302 3.396-.906 4.854c-.569 1.458-1.388 2.72-2.455 3.787s-2.31 1.884-3.732 2.453c-1.387.569-2.915.854-4.586.854s-3.218-.285-4.641-.854a11 11 0 0 1-3.734-2.453c-1.031-1.067-1.849-2.329-2.453-3.787-.569-1.493-.854-3.111-.854-4.854 0-1.778.285-3.396.854-4.854.604-1.458 1.441-2.718 2.508-3.785s2.293-1.886 3.68-2.455c1.422-.569 2.969-.852 4.641-.852zm-223.547.318h7.039c2.667 0 4.657.569 5.973 1.707s1.975 2.739 1.975 4.801c0 2.027-.659 3.608-1.975 4.746s-3.306 1.707-5.973 1.707h-7.039zm-326.654.055h7.893c2.489 0 4.64.479 6.453 1.439 1.849.924 3.272 2.258 4.268 4 1.031 1.707 1.547 3.751 1.547 6.133 0 2.347-.516 4.393-1.547 6.135-.996 1.742-2.419 3.093-4.268 4.053-1.813.924-3.964 1.387-6.453 1.387h-7.893zm-50.963 1.391l5.918 14.289h-11.861zm190.266.002l5.92 14.287h-11.861zm308.854 0l5.92 14.287h-11.861zM80 .115a5.34 5.34 0 0 0-5.34 5.34c0 1.925 1.035 3.702 2.712 4.648l2.63 13.12 2.61-13.108a5.33 5.33 0 0 0 2.728-4.66A5.34 5.34 0 0 0 80 .115M45.122 8.861c-.937-.033-1.866.182-2.694.622a5.34 5.34 0 0 0-2.208 7.222c.902 1.7 2.651 2.783 4.576 2.832l8.482 10.35-3.85-12.8a5.33 5.33 0 0 0 .224-5.394c-.894-1.685-2.621-2.764-4.528-2.83zm69.756 0c-1.907.066-3.634 1.145-4.528 2.83a5.33 5.33 0 0 0 .224 5.394l-3.85 12.798 8.482-10.35c1.925-.049 3.674-1.132 4.576-2.832a5.34 5.34 0 0 0-2.208-7.22c-.828-.44-1.757-.655-2.694-.622zM80 28.585a51.56 51.56 0 0 0-45.148 26.66L0 60.577l38.12.002c7.596-16.265 23.927-26.661 41.881-26.661s34.285 10.395 41.881 26.661H160l-34.85-5.334A51.56 51.56 0 0 0 80 28.585m-62.248 4.458c-1.658.1-3.174.967-4.102 2.344a5.34 5.34 0 0 0 1.442 7.412c1.595 1.078 3.648 1.212 5.37.352l12.348 5.158-9.41-9.494a5.33 5.33 0 0 0-2.336-4.868c-.974-.657-2.139-.974-3.312-.902zm124.494 0c-1.173-.072-2.338.245-3.312.902a5.33 5.33 0 0 0-2.336 4.868l-9.41 9.494 12.348-5.158c1.722.86 3.775.726 5.37-.352a5.34 5.34 0 0 0 1.442-7.412c-.928-1.377-2.444-2.244-4.102-2.344zM80 44.581c-17.919 0-33.037 13.332-35.276 31.106H24.068a12.44 12.44 0 0 0-11.624-7.998C5.571 67.687-.001 73.258 0 80.131s5.571 12.444 12.444 12.442a12.44 12.44 0 0 0 11.624-8h20.656c2.239 17.774 17.357 31.105 35.276 31.106s33.037-13.332 35.276-31.106h20.656a12.44 12.44 0 0 0 11.624 7.998c6.873.002 12.445-5.569 12.444-12.442s-5.571-12.444-12.444-12.442a12.44 12.44 0 0 0-11.624 7.998h-20.656C113.036 57.911 97.918 44.581 80 44.581m0 8.888c14.727 0 26.666 11.937 26.666 26.662s-11.94 26.66-26.666 26.66-26.665-11.936-26.666-26.66S65.273 53.469 80 53.469m0 10.664c-8.837 0-16 7.162-16 15.996s7.163 15.996 16 15.996a16 16 0 0 0 16-15.994c0-8.835-7.163-15.998-16-15.998m67.556 7.702a8.3 8.3 0 0 1 8.296 8.296 8.3 8.3 0 0 1-8.296 8.296 8.3 8.3 0 0 1-8.296-8.296 8.3 8.3 0 0 1 8.296-8.296m0 4.146a4.15 4.15 0 0 0-4.148 4.148 4.15 4.15 0 0 0 4.148 4.146 4.15 4.15 0 0 0 4.148-4.146 4.15 4.15 0 0 0-4.148-4.146zM0 99.681l34.85 5.334a51.56 51.56 0 0 0 90.3-.002l34.842-5.33H121.88c-7.597 16.265-23.926 26.661-41.881 26.661s-34.284-10.396-41.881-26.661zm18.406 16.846c-1.173-.072-2.338.245-3.312.902a5.34 5.34 0 1 0 5.972 8.854 5.34 5.34 0 0 0 1.442-7.412c-.928-1.377-2.444-2.244-4.102-2.344m123.19 0c-1.658.1-3.174.967-4.102 2.344a5.34 5.34 0 0 0 8.856 5.97 5.34 5.34 0 0 0-1.442-7.412c-.974-.657-2.139-.974-3.312-.902m-96.848 24.172c-1.908.065-3.635 1.144-4.53 2.83a5.34 5.34 0 1 0 9.432 5.014 5.34 5.34 0 0 0-2.208-7.222c-.828-.44-1.757-.655-2.694-.622m70.502 0c-.937-.033-1.866.182-2.694.622a5.34 5.34 0 1 0 5.016 9.43 5.34 5.34 0 0 0 2.208-7.222c-.894-1.685-2.621-2.764-4.528-2.83zM80 149.437a5.34 5.34 0 0 0-5.34 5.338 5.34 5.34 0 0 0 10.68 0 5.34 5.34 0 0 0-5.34-5.338"/></svg>
