<svg xmlns="http://www.w3.org/2000/svg" width="1040" height="320"><path fill="#0f1017" d="M989.313 217.718l-6.299 5.996h4.168l7.781-5.996zm-603.617 8.256c-2.532 0-4.848.416-6.947 1.246-2.099.8-3.935 1.952-5.51 3.459-1.544 1.476-2.749 3.214-3.613 5.213s-1.297 4.197-1.297 6.596.432 4.597 1.297 6.596 2.07 3.751 3.613 5.258c1.544 1.476 3.363 2.629 5.463 3.459 2.099.8 4.4 1.199 6.9 1.199a21.75 21.75 0 0 0 6.623-1.014c2.161-.707 4.043-1.737 5.648-3.09v-12.594h-4.445v10.508a11.85 11.85 0 0 1-2.639 1.301c-1.574.523-3.226.785-4.955.785-1.852 0-3.566-.309-5.141-.924s-2.948-1.475-4.121-2.582c-1.142-1.138-2.037-2.46-2.686-3.967-.617-1.538-.928-3.183-.928-4.936 0-1.784.31-3.429.928-4.936a11.88 11.88 0 0 1 2.686-3.967c1.173-1.107 2.547-1.969 4.121-2.584 1.605-.615 3.333-.922 5.186-.922 1.821 0 3.505.307 5.049.922 1.574.584 3.026 1.523 4.354 2.814l2.871-2.859c-1.482-1.661-3.288-2.906-5.418-3.736s-4.477-1.246-7.039-1.246zm144.859 0c-2.501 0-4.801.416-6.9 1.246s-3.921 1.997-5.465 3.504c-1.544 1.476-2.747 3.214-3.611 5.213s-1.297 4.183-1.297 6.551.432 4.55 1.297 6.549a16.34 16.34 0 0 0 3.611 5.26c1.544 1.476 3.366 2.629 5.465 3.459 2.13.83 4.431 1.244 6.9 1.244s4.738-.4 6.807-1.199c2.099-.83 3.921-1.983 5.465-3.459 1.574-1.507 2.778-3.259 3.611-5.258.864-1.999 1.297-4.197 1.297-6.596s-.432-4.597-1.297-6.596a14.95 14.95 0 0 0-3.611-5.213c-1.544-1.507-3.366-2.659-5.465-3.459-2.068-.83-4.337-1.246-6.807-1.246zm255.568 0c-2.84 0-5.187.43-7.039 1.291-1.821.83-3.181 1.953-4.076 3.367-.864 1.384-1.297 2.906-1.297 4.566 0 1.722.356 3.137 1.066 4.244.71 1.076 1.635 1.938 2.777 2.584 1.173.646 2.454 1.183 3.844 1.613l4.215 1.061c1.389.308 2.655.677 3.797 1.107 1.173.4 2.114.939 2.824 1.615.741.677 1.111 1.567 1.111 2.674 0 .953-.276 1.815-.832 2.584-.556.738-1.421 1.321-2.594 1.752s-2.701.646-4.584.646c-2.068 0-4.061-.353-5.975-1.061s-3.488-1.599-4.723-2.676l-1.715 3.598c1.297 1.199 3.072 2.184 5.326 2.953 2.254.738 4.616 1.105 7.086 1.105 2.84 0 5.187-.414 7.039-1.244 1.883-.861 3.271-1.983 4.166-3.367.895-1.415 1.344-2.937 1.344-4.566 0-1.691-.354-3.076-1.065-4.152s-1.653-1.936-2.826-2.582c-1.142-.646-2.424-1.169-3.844-1.568l-4.166-1.061-3.844-1.107c-1.142-.4-2.085-.939-2.826-1.615-.71-.677-1.064-1.583-1.064-2.721a4.48 4.48 0 0 1 .787-2.584c.556-.769 1.421-1.382 2.594-1.844s2.671-.693 4.492-.693c1.451 0 2.949.216 4.492.646 1.544.4 3.009 1.062 4.398 1.984l1.527-3.691c-1.358-.923-2.962-1.629-4.814-2.121s-3.72-.738-5.604-.738zm78.428 0c-2.532 0-4.848.416-6.947 1.246a16.23 16.23 0 0 0-5.51 3.459c-1.544 1.476-2.747 3.214-3.611 5.213s-1.297 4.197-1.297 6.596.432 4.597 1.297 6.596a16.33 16.33 0 0 0 3.611 5.258c1.544 1.476 3.366 2.629 5.465 3.459 2.099.8 4.4 1.199 6.9 1.199 2.285 0 4.491-.337 6.621-1.014 2.161-.707 4.045-1.737 5.65-3.09v-12.594h-4.445v10.508a11.86 11.86 0 0 1-2.641 1.301c-1.574.523-3.226.785-4.955.785-1.852 0-3.566-.309-5.141-.924s-2.948-1.475-4.121-2.582c-1.142-1.138-2.037-2.46-2.686-3.967-.617-1.538-.926-3.183-.926-4.936 0-1.784.308-3.429.926-4.936a11.88 11.88 0 0 1 2.686-3.967c1.173-1.107 2.547-1.969 4.121-2.584 1.605-.615 3.335-.922 5.188-.922 1.821 0 3.503.307 5.047.922 1.574.584 3.026 1.523 4.354 2.814l2.871-2.859c-1.482-1.661-3.288-2.906-5.418-3.736s-4.477-1.246-7.039-1.246zm71.734 0c-2.47 0-4.754.416-6.854 1.246a15.84 15.84 0 0 0-5.418 3.459 15.82 15.82 0 0 0-3.611 5.213c-.864 1.999-1.297 4.197-1.297 6.596s.432 4.597 1.297 6.596a16.7 16.7 0 0 0 3.564 5.258c1.544 1.476 3.351 2.629 5.42 3.459 2.099.8 4.384 1.199 6.854 1.199 2.532 0 4.846-.43 6.945-1.291 2.13-.861 3.936-2.121 5.418-3.781l-3.01-2.906c-1.235 1.322-2.624 2.305-4.168 2.951-1.544.615-3.195.924-4.955.924-1.821 0-3.519-.309-5.094-.924-1.544-.615-2.887-1.475-4.029-2.582a12.01 12.01 0 0 1-2.686-3.922c-.617-1.538-.926-3.197-.926-4.98s.308-3.429.926-4.936c.648-1.538 1.543-2.86 2.686-3.967s2.486-1.969 4.029-2.584c1.574-.615 3.272-.922 5.094-.922 1.76 0 3.411.323 4.955.969 1.544.615 2.933 1.568 4.168 2.859l3.01-2.906c-1.482-1.661-3.288-2.906-5.418-3.736-2.099-.861-4.4-1.291-6.9-1.291zm50.203 0c-2.501 0-4.801.416-6.9 1.246s-3.921 1.997-5.465 3.504a15.82 15.82 0 0 0-3.611 5.213c-.864 1.999-1.297 4.183-1.297 6.551s.432 4.55 1.297 6.549a16.34 16.34 0 0 0 3.611 5.26c1.544 1.476 3.366 2.629 5.465 3.459 2.13.83 4.431 1.244 6.9 1.244s4.738-.4 6.807-1.199c2.099-.83 3.921-1.983 5.465-3.459 1.574-1.507 2.778-3.259 3.611-5.258.864-1.999 1.297-4.197 1.297-6.596s-.432-4.597-1.297-6.596a14.95 14.95 0 0 0-3.611-5.213c-1.544-1.507-3.366-2.659-5.465-3.459-2.068-.83-4.337-1.246-6.807-1.246zm-578.402.369v32.289h4.631v-9.826h8.012l2.059-.084 6.973 9.91h5.047l-7.691-10.811.885-.354c2.007-.892 3.55-2.168 4.631-3.828 1.081-1.691 1.619-3.706 1.619-6.043 0-3.536-1.203-6.288-3.611-8.256-2.408-1.999-5.711-2.998-9.91-2.998zm34.756 0V244.7c0 4.674 1.219 8.227 3.658 10.656s5.79 3.643 10.051 3.643c4.291 0 7.641-1.213 10.049-3.643 2.439-2.429 3.658-5.982 3.658-10.656v-18.357h-4.492v18.174c0 3.598-.803 6.226-2.408 7.887-1.574 1.661-3.829 2.492-6.762 2.492-2.902 0-5.154-.832-6.76-2.492-1.574-1.661-2.363-4.289-2.363-7.887v-18.174zm38.275 0v32.289h4.633v-9.779h8.01c2.84 0 5.265-.446 7.272-1.338 2.007-.923 3.55-2.214 4.631-3.875 1.081-1.691 1.621-3.706 1.621-6.043s-.541-4.35-1.621-6.041-2.624-2.983-4.631-3.875-4.431-1.338-7.272-1.338zm88.895 0v32.289h13.662c3.458 0 6.499-.678 9.123-2.031 2.655-1.353 4.707-3.243 6.158-5.672 1.482-2.429 2.223-5.243 2.223-8.441s-.741-6.012-2.223-8.441c-1.451-2.429-3.503-4.321-6.158-5.674-2.624-1.353-5.665-2.029-9.123-2.029zm39.619 0v32.289h23.525v-4.014h-18.895v-10.424h16.254v-3.922h-16.254v-9.916h18.246v-4.014zm46.219 0v32.289h4.631v-32.289zm15.723 0v32.289h4.631v-24.061l19.451 24.061h3.797v-32.289h-4.631v24.059l-19.449-24.059zm33.367 0l14.264 32.289h4.584l14.217-32.289h-4.631l-11.756 26.545-11.676-26.545zm38.555 0v32.289h23.525v-4.014h-18.895v-10.424h16.254v-3.922h-16.254v-9.916h18.246v-4.014zm57.379 0v4.014h11.115v28.275h4.584v-28.275h11.113v-4.014zm33.228 0v32.289h4.631v-32.289zm62.611 0l-14.68 32.289h4.77l3.561-8.072h17.238l3.561 8.072h4.861l-14.725-32.289zm59.418 0v32.289h4.631v-32.289zm55.99 0v32.289h4.631v-24.059l19.449 24.059h3.797v-32.289h-4.631v24.057l-19.449-24.057zm-481.566 3.736c1.791 0 3.442.307 4.955.922 1.544.615 2.871 1.491 3.982 2.629a11.43 11.43 0 0 1 2.639 3.922c.648 1.507.973 3.152.973 4.936s-.324 3.429-.973 4.936c-.617 1.507-1.496 2.829-2.639 3.967-1.111 1.107-2.439 1.967-3.982 2.582-1.513.615-3.164.924-4.955.924-1.821 0-3.505-.309-5.049-.924-1.513-.615-2.84-1.475-3.982-2.582-1.142-1.138-2.037-2.46-2.686-3.967-.617-1.507-.926-3.152-.926-4.936s.308-3.429.926-4.936c.648-1.507 1.543-2.815 2.686-3.922a11.97 11.97 0 0 1 3.982-2.629c1.544-.615 3.227-.922 5.049-.922zm455.933 0c1.791 0 3.442.307 4.955.922 1.544.615 2.871 1.491 3.982 2.629a11.43 11.43 0 0 1 2.639 3.922c.648 1.507.973 3.152.973 4.936s-.324 3.429-.973 4.936c-.617 1.507-1.496 2.829-2.639 3.967-1.111 1.107-2.439 1.967-3.982 2.582-1.513.615-3.164.924-4.955.924-1.821 0-3.505-.309-5.049-.924-1.513-.615-2.84-1.475-3.982-2.582-1.142-1.138-2.037-2.46-2.686-3.967-.617-1.507-.926-3.152-.926-4.936s.308-3.429.926-4.936c.648-1.507 1.543-2.815 2.686-3.922a11.97 11.97 0 0 1 3.982-2.629c1.544-.615 3.227-.922 5.049-.922zm-573.771.277h7.873c2.964 0 5.202.63 6.715 1.891 1.544 1.261 2.314 3.043 2.314 5.35s-.771 4.105-2.314 5.396c-1.513 1.261-3.751 1.893-6.715 1.893h-7.873zm73.033 0h7.871c2.964 0 5.202.63 6.715 1.891 1.544 1.261 2.316 3.043 2.316 5.35s-.773 4.091-2.316 5.352c-1.513 1.261-3.751 1.891-6.715 1.891h-7.871zm88.893 0h8.754c2.686 0 5 .507 6.945 1.521 1.976 1.015 3.503 2.43 4.584 4.244s1.621 3.936 1.621 6.365c0 2.399-.541 4.52-1.621 6.365-1.081 1.814-2.608 3.229-4.584 4.244-1.945 1.015-4.259 1.521-6.945 1.521h-8.754zm324.34.666l6.99 15.846h-13.98zm47.834-104.041l-11.244 11.945h10.16l15.074-11.945zm-546.84 15.68c-4.553 0-8.745.745-12.576 2.238-3.831 1.438-7.191 3.513-10.078 6.223-2.832 2.71-5.052 5.889-6.662 9.539-1.555 3.65-2.332 7.659-2.332 12.027s.777 8.379 2.332 12.029c1.61 3.65 3.83 6.829 6.662 9.539s6.163 4.812 9.994 6.305c3.886 1.438 8.079 2.156 12.576 2.156 5.108 0 9.687-.885 13.74-2.654 4.109-1.77 7.552-4.341 10.328-7.715l-8.662-7.963c-1.999 2.323-4.219 4.065-6.662 5.227-2.443 1.106-5.107 1.658-7.994 1.658-2.72 0-5.22-.443-7.496-1.328s-4.246-2.155-5.912-3.814-2.97-3.623-3.914-5.891c-.888-2.267-1.334-4.784-1.334-7.549s.446-5.281 1.334-7.549c.944-2.267 2.248-4.23 3.914-5.889s3.636-2.932 5.912-3.816 4.776-1.326 7.496-1.326c2.887 0 5.551.581 7.994 1.742 2.443 1.106 4.663 2.791 6.662 5.059l8.662-7.963c-2.776-3.373-6.22-5.917-10.328-7.631-4.053-1.77-8.604-2.654-13.656-2.654zm59.287 0c-4.553 0-8.772.745-12.658 2.238s-7.273 3.595-10.16 6.305-5.136 5.889-6.746 9.539c-1.555 3.65-2.332 7.632-2.332 11.945s.777 8.295 2.332 11.945c1.61 3.65 3.831 6.829 6.662 9.539 2.887 2.71 6.274 4.812 10.16 6.305 3.942 1.493 8.218 2.24 12.826 2.24 4.553 0 8.745-.747 12.576-2.24 3.886-1.493 7.245-3.566 10.076-6.221 2.887-2.71 5.136-5.889 6.746-9.539 1.61-3.705 2.414-7.716 2.414-12.029 0-4.369-.804-8.351-2.414-11.945-1.61-3.65-3.859-6.829-6.746-9.539-2.832-2.71-6.19-4.812-10.076-6.305-3.831-1.493-8.052-2.238-12.66-2.238zm393.375 0c-4.553 0-8.743.745-12.574 2.238-3.831 1.438-7.191 3.513-10.078 6.223-2.832 2.71-5.052 5.889-6.662 9.539-1.555 3.65-2.332 7.659-2.332 12.027s.777 8.379 2.332 12.029c1.61 3.65 3.831 6.829 6.662 9.539s6.163 4.812 9.994 6.305c3.886 1.438 8.079 2.156 12.576 2.156 5.108 0 9.687-.885 13.74-2.654 4.109-1.77 7.552-4.341 10.328-7.715l-8.662-7.963c-1.999 2.323-4.219 4.065-6.662 5.227-2.443 1.106-5.107 1.658-7.994 1.658-2.721 0-5.22-.443-7.496-1.328s-4.246-2.155-5.912-3.814-2.972-3.623-3.916-5.891c-.888-2.267-1.332-4.784-1.332-7.549s.444-5.281 1.332-7.549c.944-2.267 2.25-4.23 3.916-5.889s3.636-2.932 5.912-3.816 4.776-1.326 7.496-1.326c2.887 0 5.551.581 7.994 1.742 2.443 1.106 4.663 2.791 6.662 5.059l8.662-7.963c-2.776-3.373-6.22-5.917-10.328-7.631-4.053-1.77-8.606-2.654-13.658-2.654zm90.512 0c-4.553 0-8.772.745-12.658 2.238s-7.273 3.595-10.16 6.305-5.136 5.889-6.746 9.539c-1.555 3.65-2.332 7.632-2.332 11.945s.777 8.295 2.332 11.945c1.61 3.65 3.83 6.829 6.662 9.539 2.887 2.71 6.274 4.812 10.16 6.305 3.942 1.493 8.218 2.24 12.826 2.24 4.553 0 8.745-.747 12.576-2.24 3.886-1.493 7.245-3.566 10.076-6.221 2.887-2.71 5.136-5.889 6.746-9.539 1.61-3.705 2.414-7.716 2.414-12.029 0-4.369-.804-8.351-2.414-11.945-1.61-3.65-3.859-6.829-6.746-9.539-2.832-2.71-6.19-4.812-10.076-6.305-3.831-1.493-8.052-2.238-12.66-2.238zm-440.504.994v58.066h12.66v-34.1l17.072 27.961h6.078l17.164-28.713.077 34.852h12.658l-.166-58.066h-11.076l-21.471 36.057-21.836-36.057zm80.859 0v58.066h13.49v-16.01h11.742c5.219 0 9.717-.829 13.492-2.488 3.775-1.714 6.69-4.147 8.744-7.299s3.082-6.886 3.082-11.199c0-4.369-1.028-8.129-3.082-11.281s-4.969-5.558-8.744-7.217c-3.775-1.714-8.273-2.572-13.492-2.572zm60.703 0v32.518c0 8.516 2.332 15.07 6.996 19.66s11.132 6.885 19.404 6.885 14.741-2.295 19.404-6.885 6.996-11.144 6.996-19.66v-32.518h-13.324v32.02c0 5.53-1.14 9.512-3.416 11.945s-5.468 3.65-9.576 3.65-7.302-1.217-9.578-3.65-3.414-6.415-3.414-11.945v-32.02zm59.705 0v10.949h18.656v47.117h13.49v-47.117h18.656v-10.949zm74.779 0l-25.984 58.066h13.826l5.193-12.441h27.025l5.174 12.441h14.158l-26.068-58.066zm107.584 0v58.066h13.492v-58.066zm100.256 0v58.066h13.324v-35.244l29.066 35.244H1040v-58.066h-13.324v35.23l-28.982-35.23zm-527.269 10.453c2.609 0 5.025.441 7.246 1.326s4.136 2.157 5.746 3.816c1.666 1.659 2.944 3.621 3.832 5.889.944 2.267 1.416 4.784 1.416 7.549s-.472 5.281-1.416 7.549c-.888 2.267-2.166 4.232-3.832 5.891s-3.607 2.93-5.828 3.814c-2.165.885-4.555 1.328-7.164 1.328s-5.023-.443-7.244-1.328-4.165-2.155-5.83-3.814c-1.61-1.659-2.886-3.623-3.83-5.891-.888-2.323-1.334-4.839-1.334-7.549 0-2.765.446-5.281 1.334-7.549.944-2.267 2.248-4.23 3.914-5.889s3.581-2.932 5.746-3.816c2.221-.885 4.635-1.326 7.244-1.326zm483.888 0c2.609 0 5.023.441 7.244 1.326s4.136 2.157 5.746 3.816c1.666 1.659 2.944 3.621 3.832 5.889.944 2.267 1.416 4.784 1.416 7.549s-.472 5.281-1.416 7.549c-.888 2.267-2.166 4.232-3.832 5.891s-3.607 2.93-5.828 3.814c-2.165.885-4.553 1.328-7.162 1.328s-5.025-.443-7.246-1.328-4.164-2.155-5.83-3.814c-1.61-1.659-2.886-3.623-3.83-5.891-.888-2.323-1.334-4.839-1.334-7.549 0-2.765.446-5.281 1.334-7.549.944-2.267 2.249-4.23 3.914-5.889s3.581-2.932 5.746-3.816c2.221-.885 4.637-1.326 7.246-1.326zm-346.156.496h10.994c4.164 0 7.272.887 9.326 2.656s3.082 4.257 3.082 7.465c0 3.152-1.028 5.613-3.082 7.383s-5.162 2.654-9.326 2.654h-10.994zm188.271 2.25l9.242 22.223h-18.521zM725.122 48.999l-9.904 10.523h8.951l13.277-10.523zM514.313 62.81c-4.01 0-7.727.659-11.15 1.975s-6.408 3.166-8.951 5.553-4.523 5.187-5.941 8.402c-1.369 3.215-2.055 6.724-2.055 10.523s.685 7.306 2.055 10.521c1.418 3.215 3.375 6.017 5.869 8.404 2.543 2.387 5.526 4.237 8.949 5.553 3.472 1.315 7.24 1.973 11.299 1.973 4.01 0 7.702-.657 11.076-1.973 3.424-1.315 6.383-3.142 8.877-5.48a25.54 25.54 0 0 0 5.943-8.402c1.418-3.264 2.127-6.796 2.127-10.596 0-3.848-.709-7.357-2.127-10.523a25.54 25.54 0 0 0-5.943-8.402c-2.494-2.387-5.453-4.237-8.877-5.553-3.375-1.315-7.091-1.975-11.15-1.975zm57.93 0c-4.842 0-8.878.732-12.106 2.193-3.179 1.413-5.575 3.336-7.189 5.771-1.565 2.387-2.348 5.042-2.348 7.965 0 2.728.539 4.969 1.615 6.723 1.125 1.754 2.567 3.167 4.328 4.238s3.692 1.949 5.795 2.631c2.152.682 4.28 1.267 6.383 1.754 2.152.438 4.109.925 5.869 1.461 1.761.487 3.178 1.146 4.254 1.975 1.076.779 1.615 1.851 1.615 3.215 0 1.072-.343 2.021-1.027 2.85s-1.761 1.486-3.229 1.973c-1.418.438-3.301.658-5.648.658-3.081 0-6.138-.489-9.17-1.463-2.983-1.023-5.577-2.312-7.777-3.871l-4.035 8.914c2.299 1.754 5.332 3.19 9.098 4.311 3.766 1.072 7.702 1.607 11.811 1.607 4.891 0 8.927-.73 12.106-2.191 3.228-1.461 5.648-3.386 7.262-5.773s2.422-5.016 2.422-7.891c0-2.679-.563-4.897-1.688-6.65-1.076-1.754-2.493-3.167-4.254-4.238s-3.717-1.923-5.869-2.557c-2.103-.633-4.231-1.194-6.383-1.682a141.99 141.99 0 0 1-5.795-1.461c-1.761-.487-3.18-1.121-4.256-1.9-1.076-.828-1.613-1.9-1.613-3.215 0-1.12.317-2.094.953-2.922.636-.877 1.687-1.583 3.154-2.119s3.35-.805 5.648-.805 4.646.341 7.043 1.023c2.397.633 4.793 1.632 7.189 2.996l3.668-8.988c-2.397-1.51-5.159-2.631-8.289-3.361-3.13-.779-6.309-1.17-9.537-1.17zm55.287 0c-4.01 0-7.727.659-11.15 1.975s-6.406 3.166-8.949 5.553a25.54 25.54 0 0 0-5.943 8.402c-1.369 3.215-2.053 6.724-2.053 10.523s.683 7.306 2.053 10.521c1.418 3.215 3.375 6.017 5.869 8.404 2.543 2.387 5.528 4.237 8.951 5.553 3.472 1.315 7.238 1.973 11.297 1.973 4.01 0 7.704-.657 11.078-1.973 3.424-1.315 6.383-3.142 8.877-5.48 2.543-2.387 4.523-5.187 5.941-8.402 1.418-3.264 2.127-6.796 2.127-10.596 0-3.848-.709-7.357-2.127-10.523-1.418-3.215-3.398-6.015-5.941-8.402-2.494-2.387-5.453-4.237-8.877-5.553-3.375-1.315-7.093-1.975-11.152-1.975zm-259.201.877v51.15h11.885V96.204h23.77v-9.5h-23.77V73.187h26.924v-9.5zm49.127 0v51.15h11.885v-51.15zm26.31 0v51.15h37.635v-9.645h-25.75V63.687zm223.06 0v51.15h11.883V96.204h23.77v-9.5h-23.77V73.187h26.924v-9.5zm49.125 0v51.15h11.885v-51.15zm42.449 0l-22.889 51.15h12.178l4.576-10.961h23.805l4.559 10.961h12.473l-22.963-51.15zm55.947 0v51.15h23.328c5.575 0 10.491-1.046 14.746-3.141 4.255-2.143 7.58-5.116 9.976-8.916 2.397-3.848 3.596-8.354 3.596-13.518 0-5.212-1.199-9.718-3.596-13.518s-5.722-6.747-9.976-8.842c-4.255-2.143-9.171-3.217-14.746-3.217zm62.844 0v51.15h39.762v-9.498h-27.951V93.501h23.844v-9.207h-23.844V73.187H916v-9.5zm65.115 0v51.15h37.635v-9.645h-25.75V63.687zm62.992 0l-22.889 51.15h12.178l4.576-10.961h23.805l4.559 10.961h12.471l-22.963-51.15zm-490.986 9.207c2.299 0 4.426.39 6.383 1.17s3.644 1.9 5.062 3.361c1.467 1.461 2.591 3.19 3.373 5.187.831 1.997 1.248 4.215 1.248 6.65s-.417 4.651-1.248 6.648c-.783 1.997-1.906 3.728-3.373 5.189s-3.18 2.582-5.137 3.361c-1.907.779-4.01 1.168-6.309 1.168s-4.426-.389-6.383-1.168a15.13 15.13 0 0 1-5.135-3.361c-1.418-1.461-2.544-3.192-3.375-5.189-.783-2.046-1.174-4.261-1.174-6.648 0-2.436.391-4.653 1.174-6.65.831-1.997 1.982-3.726 3.449-5.187a15.31 15.31 0 0 1 5.061-3.361c1.956-.779 4.084-1.17 6.383-1.17zm113.217 0c2.299 0 4.427.39 6.383 1.17s3.644 1.9 5.062 3.361a14.9 14.9 0 0 1 3.375 5.187c.831 1.997 1.246 4.215 1.246 6.65s-.415 4.651-1.246 6.648c-.782 1.997-1.908 3.728-3.375 5.189a15.13 15.13 0 0 1-5.135 3.361c-1.907.779-4.012 1.168-6.311 1.168s-4.426-.389-6.383-1.168a15.13 15.13 0 0 1-5.135-3.361c-1.418-1.461-2.543-3.192-3.375-5.189-.783-2.046-1.174-4.261-1.174-6.648 0-2.436.391-4.653 1.174-6.65.831-1.997 1.982-3.726 3.449-5.187a15.31 15.31 0 0 1 5.061-3.361c1.956-.779 4.084-1.17 6.383-1.17zm198.701.512h10.859c3.423 0 6.381.657 8.875 1.973 2.543 1.267 4.5 3.093 5.869 5.48 1.418 2.338 2.129 5.14 2.129 8.404 0 3.215-.711 6.015-2.129 8.402-1.369 2.387-3.326 4.239-5.869 5.555-2.494 1.267-5.452 1.898-8.875 1.898h-10.859zm-62.037 1.908l8.141 19.576h-16.316zm246.896 0l8.141 19.576h-16.314zM160 0c-5.898 0-10.68 4.782-10.68 10.68a10.67 10.67 0 0 0 5.424 9.296l5.26 26.24L165.224 20c3.374-1.889 5.462-5.454 5.456-9.32C170.68 4.782 165.899 0 160 0M90.244 17.492a10.67 10.67 0 0 0-5.388 1.244c-5.208 2.769-7.185 9.236-4.416 14.444a10.67 10.67 0 0 0 9.152 5.664l16.964 20.7-7.7-25.6a10.66 10.66 0 0 0 .448-10.788 10.67 10.67 0 0 0-9.056-5.66zm139.512 0a10.67 10.67 0 0 0-9.056 5.66 10.66 10.66 0 0 0 .448 10.788l-7.7 25.596 16.964-20.7a10.67 10.67 0 0 0 9.152-5.664c2.767-5.207.79-11.671-4.416-14.44a10.67 10.67 0 0 0-5.388-1.244zM160 56.94c-37.566 0-72.159 20.428-90.296 53.32L0 120.924l76.24.004c15.193-32.531 47.853-53.322 83.762-53.322s68.569 20.791 83.762 53.322H320l-69.7-10.668C232.163 77.367 197.568 56.94 160 56.94M35.504 65.856a10.67 10.67 0 0 0-8.204 4.688c-3.296 4.89-2.005 11.526 2.884 14.824a10.67 10.67 0 0 0 10.74.704L65.62 96.388 46.8 77.4c.323-3.852-1.465-7.577-4.672-9.736a10.67 10.67 0 0 0-6.624-1.804zm248.988 0a10.67 10.67 0 0 0-6.624 1.804c-3.207 2.159-4.995 5.884-4.672 9.736l-18.82 18.988 24.696-10.316a10.67 10.67 0 0 0 10.74-.704c4.889-3.298 6.18-9.934 2.884-14.824a10.67 10.67 0 0 0-8.204-4.688zM160 88.932c-35.837 0-66.074 26.664-70.552 62.212H48.136a24.88 24.88 0 0 0-23.248-15.996C11.143 135.144-.002 146.286 0 160.032c-.004 13.746 11.142 24.888 24.888 24.884a24.88 24.88 0 0 0 23.248-16h41.312c4.478 35.548 34.715 62.211 70.552 62.212s66.074-26.664 70.552-62.212h41.312a24.88 24.88 0 0 0 23.248 15.996c13.745.004 24.89-11.138 24.888-24.884s-11.142-24.888-24.888-24.884a24.88 24.88 0 0 0-23.248 15.996h-41.312c-4.48-35.547-34.716-62.207-70.552-62.208m0 17.776c29.454 0 53.332 23.874 53.332 53.324s-23.879 53.32-53.332 53.32-53.33-23.872-53.332-53.32 23.878-53.324 53.332-53.324m0 21.328c-17.673 0-32 14.323-32 31.992s14.327 31.992 32 31.992 31.998-14.321 32-31.988-14.325-31.996-32-31.996m135.112 15.404c9.162.004 16.588 7.43 16.592 16.592a16.6 16.6 0 0 1-16.592 16.592c-9.162-.004-16.588-7.43-16.592-16.592a16.6 16.6 0 0 1 16.592-16.592m0 8.292a8.3 8.3 0 0 0-8.296 8.296c0 4.58 3.716 8.292 8.296 8.292a8.3 8.3 0 0 0 8.296-8.292c0-4.58-3.716-8.292-8.296-8.292zM0 199.132L69.7 209.8a103.12 103.12 0 0 0 180.6-.004l69.684-10.66H243.76c-15.193 32.531-47.853 53.322-83.762 53.322s-68.569-20.791-83.762-53.322zm36.812 33.692a10.67 10.67 0 0 0-6.624 1.804c-4.889 3.298-6.18 9.934-2.884 14.824s9.937 6.183 14.828 2.884 6.18-9.934 2.884-14.824a10.67 10.67 0 0 0-8.204-4.688m246.38 0a10.67 10.67 0 0 0-8.204 4.688c-3.296 4.89-2.005 11.526 2.884 14.824s11.53 2.008 14.828-2.884 2.005-11.526-2.884-14.824a10.67 10.67 0 0 0-6.624-1.804M89.496 281.168a10.67 10.67 0 0 0-9.06 5.66c-2.769 5.208-.792 11.675 4.416 14.444s11.679.794 14.448-4.416.792-11.675-4.416-14.444a10.67 10.67 0 0 0-5.388-1.244m141.004 0a10.67 10.67 0 0 0-5.388 1.244c-5.208 2.769-7.185 9.236-4.416 14.444s9.239 7.188 14.448 4.416 7.185-9.236 4.416-14.444a10.67 10.67 0 0 0-9.056-5.66zM160 298.644c-5.897 0-10.678 4.779-10.68 10.676S154.102 320 160 320s10.68-4.782 10.68-10.68A10.68 10.68 0 0 0 160 298.644"/></svg>
