<svg xmlns="http://www.w3.org/2000/svg" width="1040" height="320"><path fill="#0f1017" d="M606.534 56.478c-3.947 0-7.606.65-10.975 1.952s-6.305 3.134-8.809 5.496-4.453 5.135-5.849 8.317c-1.348 3.182-2.022 6.653-2.022 10.414s.674 7.233 2.022 10.415c1.396 3.182 3.321 5.954 5.776 8.316 2.503 2.362 5.439 4.195 8.809 5.496 3.418 1.302 7.124 1.953 11.12 1.953 3.947 0 7.582-.651 10.904-1.953 3.369-1.302 6.282-3.109 8.737-5.424a25.28 25.28 0 0 0 5.848-8.317c1.396-3.23 2.094-6.726 2.094-10.486 0-3.809-.698-7.28-2.094-10.414a25.28 25.28 0 0 0-5.848-8.317c-2.455-2.362-5.367-4.195-8.737-5.496-3.322-1.302-6.98-1.952-10.975-1.952zm56.196 0c-4.766 0-8.736.723-11.914 2.169-3.129 1.398-5.488 3.303-7.076 5.713-1.54 2.363-2.31 4.991-2.31 7.883 0 2.7.529 4.918 1.588 6.654 1.107 1.736 2.528 3.133 4.261 4.194s3.634 1.929 5.704 2.604a81.84 81.84 0 0 0 6.283 1.735c2.118.434 4.043.916 5.776 1.447 1.733.482 3.128 1.133 4.187 1.952 1.059.771 1.589 1.832 1.589 3.182 0 1.061-.337 2.001-1.011 2.821s-1.734 1.471-3.178 1.953c-1.396.434-3.249.651-5.559.651-3.033 0-6.041-.482-9.025-1.447-2.936-1.013-5.488-2.29-7.654-3.833l-3.971 8.823c2.262 1.736 5.246 3.158 8.953 4.267 3.707 1.061 7.581 1.592 11.625 1.592 4.814 0 8.786-.724 11.914-2.17 3.177-1.446 5.56-3.351 7.148-5.713a13.7 13.7 0 0 0 2.383-7.811c0-2.652-.553-4.845-1.66-6.581a12.46 12.46 0 0 0-4.188-4.195c-1.733-1.061-3.658-1.905-5.776-2.531a92.52 92.52 0 0 0-6.282-1.663c-2.07-.482-3.972-.965-5.705-1.447s-3.128-1.109-4.187-1.881c-1.059-.82-1.589-1.88-1.589-3.182 0-1.109.312-2.073.938-2.893.626-.868 1.661-1.567 3.105-2.097s3.298-.796 5.56-.796 4.572.338 6.931 1.013c2.359.627 4.718 1.615 7.076 2.965l3.61-8.895c-2.359-1.495-5.079-2.603-8.16-3.326a38.5 38.5 0 0 0-9.387-1.157zm53.597 0c-3.947 0-7.606.65-10.975 1.952s-6.305 3.134-8.809 5.496-4.453 5.135-5.849 8.317c-1.348 3.182-2.022 6.653-2.022 10.414s.674 7.233 2.022 10.415c1.396 3.182 3.321 5.954 5.776 8.316 2.503 2.362 5.439 4.195 8.809 5.496 3.418 1.302 7.124 1.953 11.12 1.953 3.947 0 7.582-.651 10.904-1.953 3.369-1.302 6.282-3.109 8.737-5.424a25.28 25.28 0 0 0 5.848-8.317c1.396-3.23 2.094-6.726 2.094-10.486 0-3.809-.698-7.28-2.094-10.414-1.396-3.182-3.345-5.955-5.848-8.317-2.455-2.362-5.367-4.195-8.737-5.496-3.321-1.302-6.98-1.952-10.975-1.952zm247.621 0c-3.947 0-7.606.65-10.975 1.952s-6.305 3.134-8.808 5.496-4.453 5.135-5.849 8.317c-1.348 3.182-2.022 6.653-2.022 10.414s.674 7.233 2.022 10.415c1.396 3.182 3.321 5.954 5.776 8.316 2.503 2.362 5.439 4.195 8.809 5.496 3.418 1.302 7.124 1.953 11.12 1.953 3.947 0 7.582-.651 10.904-1.953 3.37-1.302 6.282-3.109 8.737-5.424 2.503-2.363 4.452-5.135 5.848-8.317 1.396-3.23 2.094-6.726 2.094-10.486 0-3.809-.698-7.28-2.094-10.414a25.28 25.28 0 0 0-5.848-8.317c-2.455-2.362-5.367-4.195-8.737-5.496-3.321-1.302-6.98-1.952-10.975-1.952zm-209.766.868v50.624h11.698V94.012h10.181c4.525 0 8.423-.723 11.697-2.169 3.273-1.495 5.801-3.616 7.582-6.364s2.671-6.003 2.671-9.764c0-3.809-.89-7.088-2.671-9.836s-4.309-4.845-7.582-6.291c-3.273-1.495-7.172-2.242-11.697-2.242zm53.524 0v50.624h11.698V87.214h22.961v20.756h11.697V57.346h-11.697v19.96h-22.961v-19.96zm52.73 0l19.568 32.581v18.043h11.697V90.048l19.641-32.702h-11.481l-13.531 22.473-13.474-22.473zm141.366 0v50.624h11.698V89.529h23.394v-9.402h-23.394V66.748H1040v-9.402zm-602.232.868v50.624h11.698V94.881h10.18c4.525 0 8.424-.724 11.698-2.17 3.273-1.495 5.801-3.616 7.582-6.364s2.671-6.002 2.671-9.763c0-3.809-.89-7.087-2.671-9.836s-4.308-4.846-7.582-6.292c-3.273-1.495-7.173-2.242-11.698-2.242zm53.524 0v50.624h11.698V88.082h22.961v20.756h11.697V58.213h-11.697v19.961h-22.961V58.213zm59.734 0v50.624h11.698V58.213zm25.075 0v50.624h37.042v-9.546h-25.344V58.213zm68.629 8.245c2.262 0 4.356.386 6.282 1.157s3.586 1.88 4.982 3.326a14.76 14.76 0 0 1 3.322 5.135c.818 1.977 1.227 4.17 1.227 6.581s-.408 4.604-1.227 6.581c-.77 1.977-1.878 3.689-3.322 5.135s-3.128 2.555-5.054 3.326c-1.877.771-3.948 1.157-6.21 1.157s-4.356-.386-6.282-1.157-3.611-1.88-5.055-3.326c-1.396-1.446-2.503-3.159-3.321-5.135-.77-2.025-1.156-4.219-1.156-6.581 0-2.411.386-4.604 1.156-6.581.818-1.977 1.949-3.689 3.393-5.135s3.105-2.555 4.982-3.326c1.925-.771 4.019-1.157 6.282-1.157zm109.793 0c2.263 0 4.356.386 6.282 1.157s3.586 1.88 4.982 3.326c1.444 1.446 2.552 3.159 3.322 5.135.818 1.977 1.227 4.17 1.227 6.581s-.408 4.604-1.227 6.581c-.77 1.977-1.878 3.689-3.322 5.135s-3.128 2.555-5.054 3.326c-1.877.771-3.947 1.157-6.21 1.157s-4.356-.386-6.282-1.157-3.611-1.88-5.055-3.326c-1.396-1.446-2.502-3.159-3.321-5.135-.77-2.025-1.156-4.219-1.156-6.581 0-2.411.386-4.604 1.156-6.581.818-1.977 1.949-3.689 3.394-5.135s3.105-2.555 4.982-3.326c1.925-.771 4.019-1.157 6.282-1.157zm247.621 0c2.262 0 4.356.386 6.282 1.157s3.586 1.88 4.982 3.326c1.444 1.446 2.552 3.159 3.322 5.135.818 1.977 1.227 4.17 1.227 6.581s-.408 4.604-1.227 6.581c-.77 1.977-1.878 3.689-3.322 5.135s-3.128 2.555-5.054 3.326c-1.877.771-3.948 1.157-6.21 1.157s-4.356-.386-6.282-1.157-3.611-1.88-5.055-3.326c-1.396-1.446-2.503-3.159-3.321-5.135-.77-2.025-1.156-4.219-1.156-6.581 0-2.411.386-4.604 1.156-6.581.818-1.977 1.949-3.689 3.393-5.135s3.105-2.555 4.982-3.326c1.925-.771 4.019-1.157 6.282-1.157zm-198.068.434h9.531c3.61 0 6.306.772 8.087 2.314s2.671 3.712 2.671 6.508c0 2.748-.89 4.894-2.671 6.437s-4.477 2.314-8.087 2.314h-9.531zm-354.611.868h9.531c3.61 0 6.306.772 8.087 2.314s2.671 3.713 2.671 6.509c0 2.748-.89 4.893-2.671 6.436s-4.477 2.314-8.087 2.314h-9.531zm18.531 66.205c-4.753 0-9.131.784-13.13 2.352-4 1.51-7.507 3.687-10.521 6.532-2.956 2.845-5.275 6.183-6.956 10.015-1.623 3.832-2.435 8.041-2.435 12.628s.812 8.796 2.435 12.628c1.681 3.832 3.999 7.17 6.956 10.015s6.435 5.052 10.435 6.619c4.058 1.51 8.434 2.264 13.129 2.264 5.333 0 10.115-.93 14.347-2.788 4.29-1.858 7.884-4.558 10.782-8.099l-9.043-8.36c-2.087 2.439-4.406 4.267-6.957 5.487-2.551 1.161-5.333 1.742-8.347 1.742-2.84 0-5.449-.465-7.825-1.394s-4.435-2.264-6.174-4.006-3.101-3.803-4.086-6.184c-.928-2.38-1.392-5.023-1.392-7.926s.464-5.544 1.392-7.925c.985-2.38 2.347-4.442 4.086-6.183s3.797-3.078 6.174-4.007 4.985-1.394 7.825-1.394c3.014 0 5.797.61 8.347 1.83 2.551 1.161 4.87 2.931 6.957 5.312l9.043-8.361c-2.898-3.542-6.492-6.212-10.782-8.012-4.232-1.858-8.985-2.787-14.26-2.787zm73.059 0c-4.753 0-9.159.784-13.217 2.352s-7.593 3.774-10.607 6.619a30.44 30.44 0 0 0-7.043 10.015c-1.623 3.832-2.435 8.012-2.435 12.541s.812 8.709 2.435 12.541c1.681 3.832 3.999 7.171 6.956 10.016 3.014 2.845 6.551 5.051 10.608 6.618 4.116 1.568 8.579 2.352 13.39 2.352 4.753 0 9.13-.784 13.129-2.352 4.058-1.568 7.565-3.745 10.521-6.532 3.014-2.845 5.362-6.183 7.043-10.015 1.681-3.89 2.522-8.099 2.522-12.628 0-4.587-.841-8.767-2.522-12.541-1.681-3.832-4.029-7.17-7.043-10.015-2.956-2.845-6.463-5.052-10.521-6.619-4-1.568-8.405-2.352-13.217-2.352zm511.664 0c-4.869 0-9.333.784-13.39 2.352-4.058 1.51-7.594 3.687-10.608 6.532s-5.362 6.183-7.043 10.015c-1.623 3.832-2.435 8.041-2.435 12.628s.812 8.796 2.435 12.628c1.681 3.832 3.999 7.17 6.956 10.015 3.014 2.845 6.521 5.052 10.521 6.619 4.058 1.51 8.493 2.264 13.304 2.264 4.348 0 8.694-.668 13.042-2.003 4.406-1.335 8.261-3.251 11.565-5.748v-24.734h-12.869v17.908c-.945.498-1.902.915-2.869 1.252-2.609.871-5.304 1.306-8.086 1.306-2.898 0-5.564-.465-7.999-1.394-2.377-.929-4.464-2.264-6.261-4.006-1.739-1.8-3.101-3.89-4.086-6.271-.927-2.381-1.392-4.993-1.392-7.838 0-2.903.464-5.544 1.392-7.925.985-2.38 2.347-4.442 4.086-6.183 1.797-1.742 3.913-3.078 6.347-4.007s5.13-1.394 8.086-1.394c3.072 0 5.914.581 8.522 1.742 2.609 1.103 5.014 2.816 7.217 5.138l9.043-8.361c-2.956-3.426-6.608-6.038-10.956-7.838-4.29-1.8-9.13-2.7-14.521-2.7zm-457.385 1.045v60.964h13.216v-35.803l17.825 29.358h6.347l17.921-30.145.078 36.59h13.217l-.174-60.964h-11.564l-22.417 37.855-22.798-37.855zm93.406 0v60.964h14.085v-16.808h12.261c5.449 0 10.143-.871 14.085-2.613 3.942-1.8 6.986-4.354 9.13-7.664s3.217-7.229 3.217-11.758c0-4.587-1.072-8.534-3.217-11.844s-5.189-5.835-9.13-7.577c-3.942-1.8-8.636-2.7-14.085-2.7zm72.332 0v34.14c0 8.941 2.435 15.821 7.304 20.64s11.623 7.229 20.26 7.229 15.391-2.41 20.26-7.229 7.303-11.699 7.303-20.64v-34.14h-13.911v33.617c0 5.806-1.189 9.987-3.565 12.542s-5.71 3.832-10 3.832-7.622-1.277-9.999-3.832-3.565-6.736-3.565-12.542V135.01zm71.511 0v11.496h19.477v49.467h14.086v-49.467h19.477V135.01zm70.973 0v60.964h14.086V135.01zm38.888 0v60.964h13.913v-37.002l30.346 37.002h11.564V135.01h-13.912v36.986l-30.26-36.986zm-401.388 10.973c2.724 0 5.246.465 7.565 1.394s4.319 2.265 6 4.007c1.739 1.742 3.071 3.803 3.999 6.183.985 2.381 1.479 5.022 1.479 7.925s-.493 5.545-1.479 7.926c-.927 2.381-2.26 4.442-3.999 6.184s-3.769 3.077-6.087 4.006c-2.261.929-4.753 1.394-7.478 1.394s-5.246-.465-7.564-1.394-4.348-2.264-6.087-4.006c-1.681-1.742-3.013-3.803-3.999-6.184-.927-2.439-1.391-5.081-1.391-7.926 0-2.903.464-5.544 1.391-7.925.986-2.38 2.347-4.442 4.086-6.183s3.739-3.078 6-4.007c2.319-.929 4.84-1.394 7.564-1.394zm161.77.523h11.478c4.348 0 7.594.929 9.739 2.787s3.217 4.471 3.217 7.838c0 3.309-1.072 5.893-3.217 7.751s-5.391 2.786-9.739 2.786h-11.478zm-161.068 75.538c-3.547 0-6.478.54-8.792 1.621-2.275 1.043-3.971 2.453-5.089 4.229-1.08 1.738-1.619 3.65-1.619 5.735 0 2.163.443 3.939 1.33 5.33.887 1.352 2.043 2.433 3.47 3.244 1.465.811 3.066 1.487 4.801 2.028a95.53 95.53 0 0 0 5.263 1.332c1.735.386 3.316.85 4.743 1.391 1.465.502 2.641 1.177 3.528 2.027.925.85 1.389 1.97 1.389 3.361 0 1.197-.347 2.278-1.041 3.244-.694.927-1.774 1.661-3.239 2.202s-3.373.811-5.725.811a21.25 21.25 0 0 1-7.461-1.333c-2.391-.888-4.358-2.008-5.9-3.36l-2.139 4.519c1.619 1.506 3.837 2.742 6.652 3.707 2.815.927 5.764 1.391 8.849 1.391 3.547 0 6.477-.522 8.791-1.565 2.352-1.081 4.087-2.49 5.205-4.228a10.57 10.57 0 0 0 1.677-5.735c0-2.124-.443-3.862-1.33-5.214s-2.063-2.433-3.528-3.244c-1.427-.811-3.027-1.468-4.801-1.97-1.735-.502-3.47-.947-5.205-1.333a55.74 55.74 0 0 1-4.801-1.39c-1.427-.502-2.603-1.178-3.528-2.028-.887-.85-1.33-1.989-1.33-3.418 0-1.197.327-2.278.982-3.244.694-.965 1.774-1.738 3.239-2.317s3.335-.869 5.61-.869c1.812 0 3.681.27 5.609.811 1.928.502 3.759 1.332 5.495 2.491l1.909-4.635c-1.697-1.159-3.701-2.047-6.015-2.665a27.01 27.01 0 0 0-6.998-.927zm190.657 0c-3.085 0-5.938.521-8.56 1.564a19.77 19.77 0 0 0-6.766 4.345c-1.928 1.854-3.432 4.035-4.511 6.546s-1.62 5.272-1.62 8.284.541 5.774 1.62 8.284a20.99 20.99 0 0 0 4.453 6.605c1.928 1.854 4.183 3.301 6.766 4.344 2.622 1.004 5.476 1.507 8.56 1.507 3.162 0 6.053-.541 8.675-1.622 2.661-1.081 4.917-2.665 6.767-4.75l-3.759-3.649c-1.542 1.661-3.278 2.896-5.206 3.707-1.928.772-3.991 1.159-6.188 1.159-2.275 0-4.396-.387-6.362-1.159-1.928-.772-3.605-1.854-5.031-3.244s-2.545-3.031-3.354-4.923c-.771-1.931-1.157-4.017-1.157-6.257s.386-4.306 1.157-6.198c.81-1.931 1.928-3.592 3.354-4.982s3.103-2.471 5.031-3.244c1.966-.772 4.087-1.158 6.362-1.158 2.198 0 4.26.405 6.188 1.216 1.928.772 3.664 1.969 5.206 3.591l3.759-3.649c-1.851-2.085-4.107-3.65-6.767-4.693-2.622-1.081-5.494-1.621-8.617-1.621zm124.239 0c-3.162 0-6.053.521-8.675 1.564-2.622 1.004-4.917 2.453-6.883 4.345-1.928 1.854-3.432 4.035-4.511 6.546s-1.619 5.272-1.619 8.284.54 5.774 1.619 8.284 2.583 4.712 4.511 6.605c1.928 1.854 4.203 3.301 6.825 4.344 2.622 1.004 5.494 1.507 8.617 1.507a27.02 27.02 0 0 0 8.271-1.275c2.699-.888 5.051-2.182 7.056-3.881v-15.815h-5.552v13.196c-1.048.691-2.147 1.235-3.296 1.633a19.41 19.41 0 0 1-6.188.985c-2.314 0-4.454-.387-6.42-1.159s-3.682-1.854-5.147-3.244c-1.427-1.429-2.546-3.09-3.355-4.982-.771-1.931-1.156-3.997-1.156-6.198 0-2.24.385-4.306 1.156-6.198.81-1.931 1.929-3.592 3.355-4.982 1.465-1.39 3.181-2.471 5.147-3.244 2.005-.772 4.164-1.158 6.478-1.158 2.275 0 4.376.386 6.304 1.158 1.966.734 3.779 1.911 5.437 3.533l3.586-3.591c-1.851-2.085-4.107-3.65-6.767-4.693s-5.591-1.564-8.791-1.564zm99.695 0c-3.123 0-5.996.521-8.618 1.564s-4.896 2.511-6.824 4.403a19.87 19.87 0 0 0-4.511 6.546c-1.08 2.51-1.62 5.252-1.62 8.226s.541 5.716 1.62 8.226 2.583 4.712 4.511 6.605c1.928 1.854 4.202 3.301 6.824 4.344 2.66 1.043 5.533 1.565 8.618 1.565s5.918-.503 8.501-1.507c2.622-1.043 4.897-2.49 6.825-4.344 1.966-1.892 3.47-4.094 4.511-6.605 1.08-2.51 1.619-5.272 1.619-8.284s-.54-5.774-1.619-8.284a18.78 18.78 0 0 0-4.511-6.546c-1.928-1.892-4.203-3.341-6.825-4.345-2.583-1.043-5.417-1.564-8.501-1.564zm-521.285.463v40.551h5.783v-12.34h10.006a30.21 30.21 0 0 0 2.571-.106l8.707 12.446h6.304l-9.604-13.575a16.26 16.26 0 0 0 1.102-.444c2.506-1.12 4.434-2.723 5.784-4.808 1.35-2.124 2.024-4.654 2.024-7.589s-.675-5.465-2.024-7.589-3.278-3.745-5.784-4.865-5.533-1.68-9.08-1.68zm48.604 0v40.551h29.38v-5.04h-23.596v-13.092h20.3v-4.924h-20.3v-12.454h22.787v-5.04zm87.781 0v40.551h29.38v-5.04h-23.597v-13.092h20.301v-4.924h-20.301v-12.454h22.788v-5.04zm57.511 0l-18.334 40.551h5.958l4.447-10.138h21.527l4.447 10.138h6.073l-18.391-40.551zm36.69 0v40.551h5.783v-12.34h10.006c.89 0 1.747-.036 2.571-.106l8.707 12.446h6.304l-9.604-13.575c.378-.137.745-.284 1.102-.444 2.506-1.12 4.435-2.723 5.784-4.808 1.35-2.124 2.024-4.654 2.024-7.589s-.674-5.465-2.024-7.589-3.278-3.745-5.784-4.865-5.533-1.68-9.08-1.68zm96.976 0v40.551h5.784v-18.075h23.25v18.075h5.784v-40.551h-5.784v17.437h-23.25v-17.437zm126.842 0v40.551h5.783v-12.34h10.006c.89 0 1.747-.036 2.571-.106l8.707 12.446h6.304l-9.604-13.575a16.26 16.26 0 0 0 1.102-.444c2.506-1.12 4.434-2.723 5.784-4.808 1.35-2.124 2.024-4.654 2.024-7.589s-.674-5.465-2.024-7.589-3.278-3.745-5.784-4.865-5.533-1.68-9.08-1.68zm103.396 0v23.056c0 5.87 1.523 10.331 4.569 13.382s7.229 4.577 12.55 4.577c5.359 0 9.543-1.526 12.55-4.577 3.046-3.051 4.569-7.512 4.569-13.382v-23.056h-5.61v22.824c0 4.518-1.002 7.821-3.007 9.906-1.966 2.085-4.781 3.128-8.444 3.128-3.624 0-6.439-1.043-8.444-3.128-1.966-2.085-2.949-5.388-2.949-9.906v-22.824zm52.653 0v40.551h5.783v-12.282h10.006c3.547 0 6.574-.559 9.08-1.679 2.506-1.159 4.435-2.781 5.784-4.866 1.35-2.124 2.025-4.654 2.025-7.589s-.675-5.465-2.025-7.589-3.278-3.745-5.784-4.865-5.533-1.68-9.08-1.68zm-89.169 4.693c2.236 0 4.299.386 6.188 1.158 1.928.772 3.585 1.873 4.973 3.302a14.36 14.36 0 0 1 3.297 4.924c.81 1.892 1.214 3.958 1.214 6.198s-.404 4.306-1.214 6.198c-.771 1.892-1.871 3.553-3.297 4.982-1.388 1.39-3.046 2.472-4.973 3.244-1.889.772-3.952 1.159-6.188 1.159-2.275 0-4.376-.387-6.304-1.159-1.889-.772-3.548-1.854-4.974-3.244-1.427-1.429-2.545-3.09-3.354-4.982-.771-1.892-1.157-3.958-1.157-6.198s.386-4.306 1.157-6.198c.81-1.892 1.928-3.534 3.354-4.924a14.95 14.95 0 0 1 4.974-3.302c1.928-.772 4.029-1.158 6.304-1.158zm-515.502.347h9.832c3.702 0 6.497.792 8.387 2.375 1.928 1.583 2.892 3.823 2.892 6.719s-.964 5.156-2.892 6.778c-1.889 1.583-4.685 2.374-8.387 2.374h-9.832zm230.586 0h9.832c3.702 0 6.497.792 8.386 2.375 1.928 1.583 2.892 3.823 2.892 6.719s-.964 5.156-2.892 6.778c-1.889 1.583-4.685 2.374-8.386 2.374h-9.832zm223.819 0h9.832c3.702 0 6.497.792 8.387 2.375 1.928 1.583 2.892 3.823 2.892 6.719s-.964 5.156-2.892 6.778c-1.889 1.583-4.685 2.374-8.387 2.374h-9.832zm156.049 0h9.833c3.702 0 6.496.792 8.386 2.375 1.928 1.583 2.892 3.823 2.892 6.719s-.964 5.136-2.892 6.719c-1.889 1.583-4.684 2.375-8.386 2.375h-9.833zm-419.507.841l8.73 19.897h-17.46zM160 0c-5.898 0-10.68 4.782-10.68 10.68a10.66 10.66 0 0 0 5.424 9.296l5.26 26.24L165.224 20c3.374-1.889 5.462-5.454 5.456-9.32C170.68 4.782 165.898 0 160 0M90.244 17.492a10.67 10.67 0 0 0-5.388 1.244c-5.208 2.769-7.185 9.236-4.416 14.444a10.67 10.67 0 0 0 9.152 5.664l16.964 20.7-7.7-25.6a10.66 10.66 0 0 0 .448-10.788 10.67 10.67 0 0 0-9.056-5.66zm139.512 0a10.67 10.67 0 0 0-9.056 5.66 10.66 10.66 0 0 0 .448 10.788l-7.7 25.596 16.964-20.7a10.67 10.67 0 0 0 9.152-5.664c2.767-5.207.79-11.671-4.416-14.44a10.67 10.67 0 0 0-5.388-1.244zM160 56.94c-37.566 0-72.159 20.428-90.296 53.32L0 120.924l76.24.004a92.45 92.45 0 0 1 167.524 0H320l-69.7-10.668c-18.137-32.893-52.732-53.32-90.3-53.32M35.504 65.856a10.67 10.67 0 0 0-8.204 4.688c-3.296 4.89-2.005 11.526 2.884 14.824a10.67 10.67 0 0 0 10.74.704L65.62 96.388 46.8 77.4c.323-3.852-1.465-7.577-4.672-9.736a10.67 10.67 0 0 0-6.624-1.804zm248.988 0a10.67 10.67 0 0 0-6.624 1.804c-3.207 2.159-4.995 5.884-4.672 9.736l-18.82 18.988 24.696-10.316a10.67 10.67 0 0 0 10.74-.704c4.889-3.298 6.18-9.934 2.884-14.824a10.67 10.67 0 0 0-8.204-4.688zM160 88.932c-35.837 0-66.074 26.664-70.552 62.212H48.136a24.88 24.88 0 0 0-23.248-15.996C11.143 135.144-.002 146.286 0 160.032c-.004 13.746 11.142 24.888 24.888 24.884a24.88 24.88 0 0 0 23.248-16h41.312c4.478 35.548 34.715 62.211 70.552 62.212s66.074-26.664 70.552-62.212h41.312a24.88 24.88 0 0 0 23.248 15.996c13.746.004 24.89-11.138 24.888-24.884.004-13.746-11.142-24.888-24.888-24.884a24.88 24.88 0 0 0-23.248 15.996h-41.312c-4.48-35.547-34.716-62.207-70.552-62.208m0 17.776c29.454 0 53.332 23.874 53.332 53.324s-23.879 53.32-53.332 53.32-53.33-23.872-53.332-53.32 23.878-53.324 53.332-53.324m0 21.328c-17.673 0-32 14.323-32 31.992s14.327 31.992 32 31.992 31.998-14.321 32-31.988-14.325-31.996-32-31.996m135.112 15.404c9.162.004 16.588 7.43 16.592 16.592-.004 9.162-7.43 16.588-16.592 16.592-9.162-.004-16.588-7.43-16.592-16.592.004-9.162 7.43-16.588 16.592-16.592m0 8.292a8.3 8.3 0 0 0-8.296 8.296 8.3 8.3 0 0 0 8.296 8.292 8.3 8.3 0 0 0 8.296-8.292 8.3 8.3 0 0 0-8.296-8.292zM0 199.132L69.7 209.8a103.12 103.12 0 0 0 180.6-.004l69.684-10.66H243.76a92.45 92.45 0 0 1-167.524 0zm36.812 33.692a10.67 10.67 0 0 0-6.624 1.804c-4.889 3.298-6.18 9.934-2.884 14.824s9.937 6.183 14.828 2.884 6.18-9.934 2.884-14.824a10.67 10.67 0 0 0-8.204-4.688m246.38 0a10.67 10.67 0 0 0-8.204 4.688c-3.296 4.89-2.005 11.526 2.884 14.824s11.53 2.008 14.828-2.884 2.005-11.526-2.884-14.824a10.67 10.67 0 0 0-6.624-1.804M89.496 281.168a10.67 10.67 0 0 0-9.06 5.66c-2.769 5.208-.792 11.675 4.416 14.444s11.679.794 14.448-4.416.792-11.675-4.416-14.444a10.67 10.67 0 0 0-5.388-1.244m141.004 0a10.67 10.67 0 0 0-5.388 1.244c-5.208 2.769-7.185 9.236-4.416 14.444s9.239 7.188 14.448 4.416 7.185-9.236 4.416-14.444a10.67 10.67 0 0 0-9.056-5.66zM160 298.644c-5.897 0-10.678 4.779-10.68 10.676S154.102 320 160 320s10.68-4.782 10.68-10.68-4.783-10.676-10.68-10.676"/></svg>
